<svg width="1920" height="839" viewBox="0 0 1920 839" fill="none" xmlns="http://www.w3.org/2000/svg">
<path d="M688.959 50.7842C630.536 78.785 605.726 148.982 633.624 207.19C674.048 292.519 810.201 314.081 815.595 315.004C815.595 315.004 886.732 190.583 845.571 105.689C817.641 47.4149 747.381 22.7834 688.959 50.7842ZM764.94 209.316C735.67 223.345 700.628 211.06 686.634 181.864C672.641 152.668 685.015 117.657 714.286 103.628C743.557 89.5993 778.599 101.884 792.592 131.08C806.585 160.277 794.211 195.287 764.94 209.316Z" fill="#E5E5E5"/>
<path d="M1616.29 432.432C1597.89 425.577 1577.38 434.893 1570.57 453.176C1560.48 479.875 1584.43 514.055 1585.36 515.424C1585.36 515.424 1627.44 504.829 1637.28 478.061C1644.1 459.757 1634.68 439.287 1616.29 432.432ZM1597.73 482.227C1588.52 478.793 1583.82 468.583 1587.24 459.413C1590.65 450.242 1600.89 445.596 1610.1 449.03C1619.32 452.465 1624.01 462.674 1620.6 471.845C1617.18 481.016 1606.95 485.662 1597.73 482.227Z" fill="#E5E5E5"/>
<path d="M-0.999969 57C-144.907 57 -261.997 173.822 -261.997 317.237C-262.943 527.022 -10.9179 700.969 -0.999969 708C-0.999969 708 260.944 527.022 259.997 317.4C259.997 173.822 142.907 57 -0.999969 57ZM-0.999969 447.6C-73.1005 447.6 -131.499 389.335 -131.499 317.4C-131.499 245.464 -73.1005 187.2 -0.999969 187.2C71.1006 187.2 129.499 245.464 129.499 317.4C129.499 389.335 71.1006 447.6 -0.999969 447.6Z" fill="#FFCB45"/>
<path d="M1919 480C1839.6 480 1775 544.423 1775 623.511C1774.48 739.198 1913.53 835.123 1919 839C1919 839 2063.52 739.198 2063 623.6C2063 544.423 1998.4 480 1919 480ZM1919 695.4C1879.22 695.4 1847 663.27 1847 623.6C1847 583.931 1879.22 551.8 1919 551.8C1958.78 551.8 1991 583.931 1991 623.6C1991 663.27 1958.78 695.4 1919 695.4Z" fill="#8DD21B"/>
</svg>
