<svg width="61" height="68" viewBox="0 0 61 68" fill="none" xmlns="http://www.w3.org/2000/svg">
<path d="M61 61.2V13.6C61 9.8498 57.9602 6.8 54.2222 6.8H47.4444V0H40.6667V6.8H20.3333V0H13.5556V6.8H6.77778C3.03983 6.8 0 9.8498 0 13.6V61.2C0 64.9502 3.03983 68 6.77778 68H54.2222C57.9602 68 61 64.9502 61 61.2ZM20.3333 54.4H13.5556V47.6H20.3333V54.4ZM20.3333 40.8H13.5556V34H20.3333V40.8ZM33.8889 54.4H27.1111V47.6H33.8889V54.4ZM33.8889 40.8H27.1111V34H33.8889V40.8ZM47.4444 54.4H40.6667V47.6H47.4444V54.4ZM47.4444 40.8H40.6667V34H47.4444V40.8ZM54.2222 23.8H6.77778V17H54.2222V23.8Z" fill="#FFCB45"/>
</svg>
