<svg width="69" height="69" viewBox="0 0 69 69" fill="none" xmlns="http://www.w3.org/2000/svg">
<path d="M48.1882 30.1794C49.6049 30.1833 51.0083 29.9061 52.3172 29.3639C53.626 28.8217 54.8143 28.0252 55.8132 27.0205L66.1902 16.6503C67.0109 15.8296 67.0864 14.4941 66.3047 13.6329C66.1085 13.4166 65.8704 13.2423 65.6048 13.1208C65.3392 12.9993 65.0517 12.933 64.7597 12.9259C64.4677 12.9188 64.1773 12.9712 63.9061 13.0797C63.6349 13.1883 63.3887 13.3508 63.1822 13.5575L53.9333 22.7997C53.6227 23.1098 53.2017 23.2841 52.7628 23.2841C52.3239 23.2841 51.9029 23.1098 51.5924 22.7997C50.9468 22.1555 50.9819 21.0666 51.6261 20.4224L60.8346 11.2139C61.041 11.0075 61.2034 10.7613 61.3118 10.4902C61.4202 10.2192 61.4725 9.92896 61.4655 9.63713C61.4584 9.34529 61.3922 9.05793 61.2707 8.79245C61.1493 8.52698 60.9753 8.28892 60.7591 8.09271C60.3689 7.73876 59.8601 7.54401 59.3333 7.54691C58.7362 7.54732 58.1637 7.78484 57.7417 8.20726L48.5413 17.4064C48.2307 17.7165 47.8098 17.8907 47.3708 17.8907C46.9319 17.8907 46.511 17.7165 46.2004 17.4064C45.5562 16.7622 45.5899 15.6733 46.2341 15.0291L55.4426 5.82325C55.649 5.61683 55.8114 5.37063 55.9198 5.0996C56.0283 4.82857 56.0805 4.53834 56.0735 4.2465C56.0664 3.95467 56.0002 3.6673 55.8788 3.40183C55.7574 3.13635 55.5833 2.89829 55.3672 2.70208C54.9769 2.34814 54.4682 2.15338 53.9413 2.15628C53.3443 2.15699 52.7719 2.39447 52.3498 2.81663L41.9795 13.1868C40.9748 14.186 40.1782 15.3745 39.636 16.6836C39.0938 17.9926 38.8166 19.3963 38.8206 20.8132V21.9224C38.8209 22.2059 38.7651 22.4867 38.6567 22.7488C38.5482 23.0108 38.3892 23.2488 38.1886 23.4492L33.3896 28.2496C33.3395 28.2997 33.2801 28.3395 33.2146 28.3666C33.1492 28.3937 33.079 28.4077 33.0082 28.4077C32.9374 28.4077 32.8672 28.3937 32.8018 28.3666C32.7363 28.3395 32.6769 28.2997 32.6268 28.2496L9.27462 4.89607C8.87157 4.49257 8.32509 4.26517 7.75478 4.26366C7.18447 4.26214 6.63679 4.48663 6.23161 4.88798C4.18991 6.91081 3.09966 9.7665 3.09966 13.1451C3.08618 18.7244 6.01868 25.1392 10.753 29.8668L22.2687 41.3825C23.9054 43.0159 26.1233 43.9334 28.4356 43.9336C29.1728 43.9339 29.9069 43.8397 30.6201 43.6533C30.7992 43.6064 30.9835 43.5824 31.1686 43.5819C31.71 43.582 32.2313 43.7865 32.6282 44.1546L34.1631 45.5724C34.559 45.9768 34.7814 46.5198 34.7831 47.0858V47.8324C34.7791 49.5296 35.4461 51.1597 36.6388 52.3673L48.7744 64.7077L48.7866 64.7212C50.1335 66.068 51.9603 66.8245 53.865 66.8244C55.7697 66.8243 57.5964 66.0675 58.9432 64.7205C60.2899 63.3736 61.0465 61.5468 61.0463 59.6421C61.0462 57.7374 60.2894 55.9107 58.9425 54.5639L40.7518 36.3733C40.7017 36.3232 40.6619 36.2638 40.6348 36.1983C40.6077 36.1329 40.5937 36.0627 40.5937 35.9919C40.5937 35.921 40.6077 35.8509 40.6348 35.7855C40.6619 35.72 40.7017 35.6606 40.7518 35.6105L45.5508 30.8115C45.7511 30.6111 45.9889 30.4521 46.2507 30.3436C46.5125 30.2352 46.793 30.1794 47.0764 30.1794H48.1882Z" fill="#8DD21B"/>
<path d="M28.4356 48.2461C24.9833 48.2389 21.6731 46.871 19.223 44.4389L17.3551 42.5711C17.153 42.3695 16.8792 42.2562 16.5937 42.2562C16.3082 42.2562 16.0344 42.3695 15.8323 42.5711L4.37721 53.9669C2.33551 56.0086 1.60643 59.0138 2.61717 61.9571C2.67374 62.1229 2.74081 62.285 2.81797 62.4423C4.17776 65.2265 6.81647 66.8437 9.70315 66.8437C10.6959 66.8462 11.6792 66.6516 12.5962 66.2713C13.5132 65.891 14.3456 65.3325 15.0453 64.6282L30.3223 49.2784C30.3866 49.2127 30.4358 49.1339 30.4665 49.0473C30.4973 48.9607 30.5087 48.8685 30.5002 48.777V48.742C30.4942 48.658 30.4712 48.576 30.4327 48.5011C30.3942 48.4262 30.3409 48.3598 30.2761 48.306C30.2112 48.2523 30.1361 48.2122 30.0554 48.1882C29.9746 48.1642 29.8898 48.1569 29.8061 48.1665C29.351 48.217 28.8935 48.2436 28.4356 48.2461Z" fill="#8DD21B"/>
</svg>
