<svg width="59" height="67" viewBox="0 0 59 67" fill="none" xmlns="http://www.w3.org/2000/svg">
<path d="M24.3266 56.1125C25.5497 54.5715 27.4339 53.6 29.5165 53.6C31.5991 53.6 33.4503 54.5715 34.6734 56.1125C35.9626 55.811 37.1857 55.409 38.3758 54.9065L33.6817 44.2535C30.9524 45.3077 27.9318 45.2838 25.2191 44.1865L20.492 54.873C21.7482 55.409 23.0043 55.8445 24.3266 56.1125ZM6.87255 26.8C5.68388 31.1991 5.77571 35.8526 7.13701 40.2C9.21959 40.3675 11.1699 41.54 12.2939 43.5165C13.3848 45.426 13.4509 47.637 12.6575 49.513C13.55 50.4175 14.5087 51.2885 15.5335 52.059L20.5581 40.7025C19.0044 38.7595 18.0788 36.2805 18.0788 33.567C18.0788 27.2355 23.2027 22.1435 29.5165 22.1435C35.8304 22.1435 40.9542 27.269 40.9542 33.567C40.9542 36.314 39.9956 38.8265 38.3758 40.803L43.3343 52.0255C44.3921 51.2215 45.3838 50.3505 46.3094 49.379C45.5822 47.5365 45.6483 45.359 46.7061 43.5165C47.797 41.607 49.6812 40.4345 51.7308 40.2C53.1226 35.8363 53.226 31.1555 52.0283 26.733C49.9126 26.599 47.8631 25.4265 46.7392 23.383C45.5491 21.306 45.5822 18.827 46.64 16.8505C43.6318 13.5675 39.6981 11.122 35.2684 9.983C34.1114 12.06 31.9627 13.4 29.5165 13.4C27.0703 13.4 24.9216 12.0265 23.7646 10.0165C19.4067 11.1255 15.4578 13.4871 12.3931 16.817C13.4839 18.827 13.55 21.3395 12.3269 23.45C11.1699 25.527 9.05431 26.6995 6.87255 26.8ZM2.57515 25.393C-0.00328456 23.383 -0.79665 19.698 0.889252 16.75C2.57515 13.802 6.11224 12.6295 9.12042 13.9025C12.8594 9.90751 17.6577 7.0923 22.9382 5.7955C23.401 2.5125 26.1778 0 29.5165 0C32.8553 0 35.6321 2.5125 36.0618 5.7955C41.4501 7.102 46.2103 9.9495 49.8796 13.9025C51.3585 13.2807 53.0105 13.2268 54.5258 13.751C56.0411 14.2752 57.3157 15.3415 58.1107 16.75C59.7966 19.698 59.0033 23.383 56.4248 25.393C57.1852 27.9725 57.5818 30.686 57.5818 33.5C57.5818 36.314 57.1852 39.0275 56.4248 41.607C59.0033 43.617 59.7966 47.302 58.1107 50.25C56.4248 53.198 52.8878 54.3705 49.8796 53.0975C48.5573 54.538 47.0697 55.811 45.45 56.95L49.8796 67H43.731L40.5245 59.7305C39.103 60.3335 37.6155 60.836 36.0949 61.2045C35.6321 64.4875 32.8553 67 29.5165 67C26.1778 67 23.401 64.4875 22.9713 61.2045C21.3845 60.8025 19.8639 60.3 18.4094 59.6635L15.1698 67H8.95514L13.4509 56.8495C11.9002 55.745 10.4607 54.4883 9.15348 53.0975C6.11224 54.3705 2.57515 53.198 0.889252 50.25C-0.79665 47.302 -0.00328456 43.617 2.57515 41.607C1.81484 39.0275 1.41816 36.314 1.41816 33.5C1.41816 30.686 1.81484 27.9725 2.57515 25.393Z" fill="#DC1D84"/>
</svg>
