<svg width="45" height="67" viewBox="0 0 45 67" fill="none" xmlns="http://www.w3.org/2000/svg">
<path d="M36.7505 10.7088C36.7505 10.7088 37.7089 14.7338 34.6455 15.2908C32.5193 15.6615 29.0814 13.5673 27.3509 11.4836C25.2141 8.9099 25.4891 6.88065 27.1414 5.09223C29.6315 2.35515 33.9071 3.41271 33.9071 3.41271C33.9071 3.41271 26.0836 -3.37239 17.9407 2.19181C10.6905 7.13195 12.7722 13.8626 19.3179 19.7409C25.212 25.0517 20.509 30.8777 14.5578 30.1238C10.4916 29.6107 8.82874 26.3711 9.79769 24.3858C10.646 22.6832 13.5656 21.6362 13.5656 21.6362C13.5656 21.6362 10.2039 20.2938 6.26039 21.7681C2.70194 23.0874 -0.219711 25.9899 0.0130059 33.2755V67C0.0130059 67 3.68147 62.529 8.00154 57.9679C12.8272 52.8309 15.0317 49.3629 19.9907 49.765C29.3797 50.343 36.1666 46.2091 40.7829 39.5895C49.643 26.8506 42.6996 12.6166 36.7505 10.7067V10.7088Z" fill="#7C1ADE"/>
</svg>
