<svg width="87" height="68" viewBox="0 0 87 68" fill="none" xmlns="http://www.w3.org/2000/svg">
<path d="M77.0241 29.0188C75.0818 28.1662 72.9834 27.7268 70.8622 27.7286H15.4048C13.2838 27.7266 11.1855 28.1653 9.2429 29.0169C6.49738 30.2175 4.16111 32.192 2.51964 34.699C0.878176 37.206 0.00262353 40.1369 0 43.1335V64.7002C0 65.5174 0.324601 66.301 0.902394 66.8788C1.48019 67.4566 2.26384 67.7812 3.08097 67.7812C3.89809 67.7812 4.68174 67.4566 5.25954 66.8788C5.83733 66.301 6.16193 65.5174 6.16193 64.7002V63.1597C6.16693 62.7527 6.33083 62.3638 6.61865 62.076C6.90647 61.7882 7.2954 61.6243 7.70241 61.6193H78.5646C78.9716 61.6243 79.3606 61.7882 79.6484 62.076C79.9362 62.3638 80.1001 62.7527 80.1051 63.1597V64.7002C80.1051 65.5174 80.4297 66.301 81.0075 66.8788C81.5853 67.4566 82.3689 67.7812 83.1861 67.7812C84.0032 67.7812 84.7868 67.4566 85.3646 66.8788C85.9424 66.301 86.267 65.5174 86.267 64.7002V43.1335C86.264 40.1372 85.3883 37.2067 83.7469 34.7001C82.1054 32.1935 79.7694 30.2193 77.0241 29.0188Z" fill="#0394ED"/>
<path d="M66.2408 0H20.0263C17.1663 0 14.4236 1.1361 12.4013 3.15838C10.379 5.18066 9.2429 7.92345 9.2429 10.7834V24.6477C9.24298 24.7671 9.27081 24.8848 9.32418 24.9916C9.37754 25.0983 9.45499 25.1912 9.55041 25.2629C9.64583 25.3346 9.75661 25.3832 9.87401 25.4047C9.99141 25.4263 10.1122 25.4203 10.2269 25.3872C11.9088 24.8952 13.6524 24.6462 15.4048 24.6477H16.2194C16.4095 24.6489 16.5933 24.5798 16.7355 24.4536C16.8777 24.3274 16.9682 24.1531 16.9896 23.9641C17.1576 22.4587 17.8743 21.0679 19.0028 20.0573C20.1313 19.0468 21.5924 18.4873 23.1072 18.4858H33.8906C35.4064 18.4859 36.869 19.0447 37.9987 20.0554C39.1284 21.0661 39.8459 22.4577 40.014 23.9641C40.0354 24.1531 40.1259 24.3274 40.2681 24.4536C40.4103 24.5798 40.5942 24.6489 40.7843 24.6477H45.4943C45.6844 24.6489 45.8683 24.5798 46.0105 24.4536C46.1527 24.3274 46.2432 24.1531 46.2645 23.9641C46.4325 22.4597 47.1484 21.0697 48.2756 20.0593C49.4029 19.0489 50.8626 18.4888 52.3764 18.4858H63.1598C64.6756 18.4859 66.1382 19.0447 67.2678 20.0554C68.3975 21.0661 69.1151 22.4577 69.2832 23.9641C69.3046 24.1531 69.3951 24.3274 69.5373 24.4536C69.6795 24.5798 69.8633 24.6489 70.0535 24.6477H70.8622C72.6147 24.6469 74.3583 24.8965 76.0402 25.3891C76.155 25.4223 76.276 25.4282 76.3935 25.4066C76.511 25.3849 76.6219 25.3362 76.7174 25.2643C76.8129 25.1924 76.8903 25.0992 76.9435 24.9922C76.9967 24.8852 77.0244 24.7672 77.0241 24.6477V10.7834C77.0241 7.92345 75.888 5.18066 73.8658 3.15838C71.8435 1.1361 69.1007 0 66.2408 0Z" fill="#0394ED"/>
</svg>
