<svg width="31" height="31" viewBox="0 0 31 31" fill="none" xmlns="http://www.w3.org/2000/svg">
<path d="M15.5 29.0625C11.903 29.0625 8.45333 27.6336 5.90986 25.0901C3.3664 22.5467 1.9375 19.097 1.9375 15.5C1.9375 11.903 3.3664 8.45333 5.90986 5.90986C8.45333 3.3664 11.903 1.9375 15.5 1.9375C19.097 1.9375 22.5467 3.3664 25.0901 5.90986C27.6336 8.45333 29.0625 11.903 29.0625 15.5C29.0625 19.097 27.6336 22.5467 25.0901 25.0901C22.5467 27.6336 19.097 29.0625 15.5 29.0625ZM15.5 31C19.6109 31 23.5533 29.367 26.4602 26.4602C29.367 23.5533 31 19.6109 31 15.5C31 11.3891 29.367 7.44666 26.4602 4.53984C23.5533 1.63303 19.6109 0 15.5 0C11.3891 0 7.44666 1.63303 4.53984 4.53984C1.63303 7.44666 0 11.3891 0 15.5C0 19.6109 1.63303 23.5533 4.53984 26.4602C7.44666 29.367 11.3891 31 15.5 31Z" fill="#E5E5E5"/>
<path d="M13.5625 22.2812C13.5625 22.0243 13.6646 21.7779 13.8462 21.5962C14.0279 21.4146 14.2743 21.3125 14.5312 21.3125H16.4688C16.7257 21.3125 16.9721 21.4146 17.1538 21.5962C17.3354 21.7779 17.4375 22.0243 17.4375 22.2812C17.4375 22.5382 17.3354 22.7846 17.1538 22.9663C16.9721 23.1479 16.7257 23.25 16.4688 23.25H14.5312C14.2743 23.25 14.0279 23.1479 13.8462 22.9663C13.6646 22.7846 13.5625 22.5382 13.5625 22.2812ZM9.6875 16.4688C9.6875 16.2118 9.78956 15.9654 9.97124 15.7837C10.1529 15.6021 10.3993 15.5 10.6562 15.5H20.3438C20.6007 15.5 20.8471 15.6021 21.0288 15.7837C21.2104 15.9654 21.3125 16.2118 21.3125 16.4688C21.3125 16.7257 21.2104 16.9721 21.0288 17.1538C20.8471 17.3354 20.6007 17.4375 20.3438 17.4375H10.6562C10.3993 17.4375 10.1529 17.3354 9.97124 17.1538C9.78956 16.9721 9.6875 16.7257 9.6875 16.4688ZM5.8125 10.6562C5.8125 10.3993 5.91456 10.1529 6.09624 9.97124C6.27792 9.78956 6.52432 9.6875 6.78125 9.6875H24.2188C24.4757 9.6875 24.7221 9.78956 24.9038 9.97124C25.0854 10.1529 25.1875 10.3993 25.1875 10.6562C25.1875 10.9132 25.0854 11.1596 24.9038 11.3413C24.7221 11.5229 24.4757 11.625 24.2188 11.625H6.78125C6.52432 11.625 6.27792 11.5229 6.09624 11.3413C5.91456 11.1596 5.8125 10.9132 5.8125 10.6562Z" fill="#E5E5E5"/>
</svg>
