<svg width="68" height="77" viewBox="0 0 68 77" fill="none" xmlns="http://www.w3.org/2000/svg">
<path d="M64.6 15.5299C64.6102 14.9772 64.5762 9.9842 60.18 5.17668C55.8518 0.44487 51.4862 0.308594 51 0.308594H16.9864C16.1738 0.308594 11.9102 0.547077 7.7792 5.23725C3.5224 10.0675 3.4 14.9166 3.4 15.4504V26.8067H0V38.1631H3.4V60.8758C3.4 63.6543 4.7804 66.0732 6.8 67.3905V72.2321C6.8 73.2361 7.15821 74.1989 7.79584 74.9089C8.43346 75.6188 9.29826 76.0176 10.2 76.0176H13.6C14.5017 76.0176 15.3665 75.6188 16.0042 74.9089C16.6418 74.1989 17 73.2361 17 72.2321V68.4467H51V72.2321C51 73.2361 51.3582 74.1989 51.9958 74.9089C52.6335 75.6188 53.4983 76.0176 54.4 76.0176H57.8C58.7017 76.0176 59.5665 75.6188 60.2042 74.9089C60.8418 74.1989 61.2 73.2361 61.2 72.2321V67.3981C62.2315 66.7395 63.0889 65.7898 63.6858 64.6447C64.2827 63.4997 64.598 62.1997 64.6 60.8758V38.1631H68V26.8067H64.6V15.5299ZM23.8 7.87949H44.2V15.4504H23.8V7.87949ZM15.3 60.8758C13.9469 60.8753 12.6495 60.2764 11.6931 59.2108C10.7366 58.1452 10.1995 56.7003 10.2 55.1938C10.2005 53.6874 10.7384 52.2428 11.6955 51.178C12.6525 50.1131 13.9503 49.5151 15.3034 49.5156C16.6565 49.5161 17.9539 50.1151 18.9103 51.1806C19.8668 52.2462 20.4039 53.6912 20.4034 55.1976C20.403 56.7041 19.865 58.1486 18.9079 59.2135C17.9509 60.2783 16.6531 60.8763 15.3 60.8758ZM30.6 41.9485H10.2V23.0213H30.6V41.9485ZM52.7 60.8758C51.3469 60.8753 50.0495 60.2764 49.0931 59.2108C48.1366 58.1452 47.5996 56.7003 47.6 55.1938C47.6005 53.6874 48.1384 52.2428 49.0955 51.178C50.0525 50.1131 51.3503 49.5151 52.7034 49.5156C54.0565 49.5161 55.3539 50.1151 56.3103 51.1806C57.2668 52.2462 57.8039 53.6912 57.8034 55.1976C57.8029 56.7041 57.265 58.1486 56.3079 59.2135C55.3509 60.2783 54.0531 60.8763 52.7 60.8758ZM57.8 41.9485H37.4V23.0213H57.8V41.9485Z" fill="#8DD21B"/>
</svg>
