<svg width="54" height="77" viewBox="0 0 54 77" fill="none" xmlns="http://www.w3.org/2000/svg">
<path d="M41.7656 0.308594H12.2209C11.4649 0.308594 7.49924 0.554648 3.77325 5.42274C0.104625 10.2113 0 14.928 0 15.4504V57.0903C0 59.0983 0.711158 61.0239 1.97703 62.4438C3.2429 63.8636 4.95978 64.6612 6.74999 64.6612H10.125L3.375 76.0176H11.3164L13.5675 72.2321H40.5675L42.8523 76.0176H50.6249L43.8749 64.6612H47.2499C49.0402 64.6612 50.757 63.8636 52.0229 62.4438C53.2888 61.0239 53.9999 59.0983 53.9999 57.0903V15.4504C54.0033 14.7387 53.8919 10.0221 50.1896 5.36217C46.2881 0.448656 42.2178 0.308594 41.7656 0.308594ZM20.25 7.87949H33.75V15.4504H20.25V7.87949ZM11.8125 57.0903C10.4694 57.0898 9.18147 56.4909 8.23206 55.4253C7.28266 54.3598 6.74954 52.9148 6.74999 51.4084C6.75044 49.9019 7.28441 48.4574 8.23445 47.3925C9.18448 46.3276 10.4728 45.7297 11.8159 45.7302C13.159 45.7307 14.4469 46.3296 15.3963 47.3952C16.3457 48.4608 16.8788 49.9057 16.8784 51.4122C16.8779 52.9186 16.3439 54.3632 15.3939 55.428C14.4439 56.4929 13.1556 57.0908 11.8125 57.0903ZM42.1875 57.0903C40.8443 57.0898 39.5564 56.4909 38.607 55.4253C37.6576 54.3598 37.1245 52.9148 37.125 51.4084C37.1254 49.9019 37.6594 48.4574 38.6094 47.3925C39.5594 46.3276 40.8477 45.7297 42.1908 45.7302C43.5339 45.7307 44.8218 46.3296 45.7712 47.3952C46.7206 48.4608 47.2538 49.9057 47.2533 51.4122C47.2529 52.9186 46.7189 54.3632 45.7689 55.428C44.8188 56.4929 43.5306 57.0908 42.1875 57.0903ZM47.2499 38.1631H6.74999V23.0213H47.2499V38.1631Z" fill="#0394ED"/>
</svg>
