<svg width="86" height="77" viewBox="0 0 86 77" fill="none" xmlns="http://www.w3.org/2000/svg">
<path d="M20.1562 45.734C20.1562 43.652 19.4984 41.8697 18.1826 40.387C16.8669 38.9044 15.2852 38.1631 13.4375 38.1631C11.5898 38.1631 10.0081 38.9044 8.69238 40.387C7.37663 41.8697 6.71875 43.652 6.71875 45.734C6.71875 47.816 7.37663 49.5983 8.69238 51.0809C10.0081 52.5636 11.5898 53.3049 13.4375 53.3049C15.2852 53.3049 16.8669 52.5636 18.1826 51.0809C19.4984 49.5983 20.1562 47.816 20.1562 45.734ZM21.668 30.5922H64.332L60.5947 13.6996C60.5387 13.4473 60.3428 13.1712 60.0068 12.8716C59.6709 12.5719 59.377 12.422 59.125 12.422H26.875C26.623 12.422 26.3291 12.5719 25.9932 12.8716C25.6572 13.1712 25.4613 13.4473 25.4053 13.6996L21.668 30.5922ZM79.2812 45.734C79.2812 43.652 78.6234 41.8697 77.3076 40.387C75.9919 38.9044 74.4102 38.1631 72.5625 38.1631C70.7148 38.1631 69.1331 38.9044 67.8174 40.387C66.5016 41.8697 65.8438 43.652 65.8438 45.734C65.8438 47.816 66.5016 49.5983 67.8174 51.0809C69.1331 52.5636 70.7148 53.3049 72.5625 53.3049C74.4102 53.3049 75.9919 52.5636 77.3076 51.0809C78.6234 49.5983 79.2812 47.816 79.2812 45.734ZM86 41.1914V59.3616C86 59.8032 85.874 60.166 85.6221 60.4499C85.3701 60.7338 85.0482 60.8758 84.6562 60.8758H80.625V66.9325C80.625 69.4561 79.8411 71.6012 78.2734 73.3678C76.7057 75.1343 74.8021 76.0176 72.5625 76.0176C70.3229 76.0176 68.4193 75.1343 66.8516 73.3678C65.2839 71.6012 64.5 69.4561 64.5 66.9325V60.8758H21.5V66.9325C21.5 69.4561 20.7161 71.6012 19.1484 73.3678C17.5807 75.1343 15.6771 76.0176 13.4375 76.0176C11.1979 76.0176 9.29427 75.1343 7.72656 73.3678C6.15885 71.6012 5.375 69.4561 5.375 66.9325V60.8758H1.34375C0.951823 60.8758 0.629883 60.7338 0.37793 60.4499C0.125977 60.166 0 59.8032 0 59.3616V41.1914C0 38.2577 0.916829 35.7577 2.75049 33.6915C4.58415 31.6253 6.80273 30.5922 9.40625 30.5922H10.582L14.9912 10.7659C15.6351 7.80063 17.0908 5.31643 19.3584 3.31329C21.626 1.31016 24.1315 0.308594 26.875 0.308594H59.125C61.8685 0.308594 64.374 1.31016 66.6416 3.31329C68.9092 5.31643 70.3649 7.80063 71.0088 10.7659L75.418 30.5922H76.5938C79.1973 30.5922 81.4159 31.6253 83.2495 33.6915C85.0832 35.7577 86 38.2577 86 41.1914Z" fill="#FE2D78"/>
</svg>
