<svg width="43" height="77" viewBox="0 0 43 77" fill="none" xmlns="http://www.w3.org/2000/svg">
<path d="M42.5743 53.3049V18.2895C42.5743 13.5577 39.1683 9.77222 34.9109 9.77222H25.5446V5.04041H34.0594V0.308594H8.51485V5.04041H17.0297V9.77222H7.66337C3.40594 9.77222 0 13.5577 0 18.2895V53.3049C0 58.0367 3.40594 61.8221 7.66337 61.8221H8.51485L5.53465 66.554H0V71.2858H2.9802L0 76.0176H8.51485L11.0693 71.2858H31.9307L34.4851 76.0176H43L40.0198 71.2858H42.5743V66.554H37.0396L34.0594 61.8221H34.9109C39.1683 61.8221 42.5743 58.0367 42.5743 53.3049ZM4.25743 18.7627C4.25743 16.3968 5.9604 14.504 8.08911 14.504H34.0594C36.6139 14.504 38.3168 16.3968 38.3168 18.7627V28.6995C38.3168 31.5385 36.6139 33.4313 34.4851 33.4313H8.08911C5.9604 33.4313 4.25743 31.5385 4.25743 29.1726V18.7627ZM4.25743 52.3585C4.25743 49.5194 5.9604 47.6267 8.51485 47.6267C11.0693 47.6267 12.7723 49.5194 12.7723 52.3585C12.7723 55.1976 11.0693 57.0903 8.51485 57.0903C5.9604 57.0903 4.25743 55.1976 4.25743 52.3585ZM29.3762 66.554H13.198L15.7525 61.8221H26.8218L29.3762 66.554ZM29.802 52.3585C29.802 49.5194 31.505 47.6267 34.0594 47.6267C36.6139 47.6267 38.3168 49.5194 38.3168 52.3585C38.3168 55.1976 36.6139 57.0903 34.0594 57.0903C31.505 57.0903 29.802 55.1976 29.802 52.3585Z" fill="#FFCB45"/>
</svg>
