<svg width="89" height="79" viewBox="0 0 89 79" fill="none" xmlns="http://www.w3.org/2000/svg">
<path d="M74.1666 29.625H56.5071L40.2676 1.24363C40.0511 0.865771 39.7384 0.55175 39.3613 0.333362C38.9841 0.114974 38.5559 -2.72993e-05 38.1199 4.86085e-09L27.9992 4.86085e-09C26.3567 4.86085e-09 25.1716 1.5692 25.6227 3.14611L33.1986 29.625H17.3052L10.6302 20.7375C10.1636 20.1157 9.42962 19.75 8.65241 19.75H2.47337C0.864872 19.75 -0.315619 21.259 0.0753024 22.8174L4.94406 39.5L0.0753024 56.1826C-0.315619 57.741 0.864872 59.25 2.47337 59.25H8.65241C9.43116 59.25 10.1636 58.8843 10.6302 58.2625L17.3052 49.375H33.1986L25.6227 75.8523C25.1716 77.4293 26.3567 79 27.9992 79H38.1199C39.0068 79 39.8257 78.5248 40.2661 77.7564L56.5071 49.375H74.1666C79.6287 49.375 89 44.9544 89 39.5C89 34.0456 79.6287 29.625 74.1666 29.625Z" fill="#7C1ADE"/>
</svg>
