<svg width="50" height="50" viewBox="0 0 50 50" fill="none" xmlns="http://www.w3.org/2000/svg">
<path d="M48.5719 4.19043H40.0611C39.8906 4.19043 39.7272 4.25815 39.6066 4.37868C39.4861 4.49921 39.4184 4.66268 39.4184 4.83314C39.4184 4.94266 39.453 5.04065 39.5005 5.12999V10.0267C39.5007 10.2061 39.4655 10.3839 39.3969 10.5497C39.3283 10.7155 39.2277 10.8662 39.1008 10.9931C38.9739 11.12 38.8233 11.2206 38.6574 11.2892C38.4916 11.3578 38.3139 11.393 38.1344 11.3928H35.4858C35.3192 11.3928 35.1543 11.36 35.0005 11.2963C34.8466 11.2325 34.7068 11.1391 34.5891 11.0214C34.4713 10.9036 34.3779 10.7638 34.3142 10.61C34.2505 10.4561 34.2177 10.2912 34.2177 10.1247V5.20925C34.3026 5.10202 34.3502 4.96993 34.3531 4.83314C34.3533 4.74868 34.3368 4.66502 34.3046 4.58696C34.2723 4.5089 34.225 4.43797 34.1653 4.37825C34.1056 4.31853 34.0346 4.2712 33.9566 4.23897C33.8785 4.20674 33.7949 4.19024 33.7104 4.19043H16.5547C16.3843 4.19043 16.2208 4.25815 16.1003 4.37868C15.9798 4.49921 15.912 4.66268 15.912 4.83314C15.912 4.93257 15.9394 5.02336 15.9798 5.10838V10.0613C15.9798 10.2363 15.9453 10.4096 15.8783 10.5714C15.8113 10.7331 15.7131 10.88 15.5893 11.0038C15.4656 11.1276 15.3186 11.2258 15.1569 11.2928C14.9952 11.3597 14.8218 11.3942 14.6468 11.3942H12.295C11.938 11.3942 11.5957 11.2524 11.3433 11C11.0909 10.7476 10.9491 10.4053 10.9491 10.0483V5.1444C11.0063 5.05049 11.0376 4.94309 11.0399 4.83314C11.04 4.74868 11.0236 4.66502 10.9913 4.58696C10.9591 4.5089 10.9118 4.43797 10.852 4.37825C10.7923 4.31853 10.7214 4.2712 10.6433 4.23897C10.5653 4.20674 10.4816 4.19024 10.3972 4.19043H1.42952C1.05075 4.19081 0.687589 4.34135 0.419626 4.60904C0.151663 4.87673 0.00076268 5.23974 0 5.61851V48.1784C0 48.9681 0.641266 49.6093 1.42952 49.6093H48.5719C48.9509 49.6086 49.3142 49.4575 49.5819 49.1892C49.8496 48.9209 50 48.5574 50 48.1784V5.61851C49.9992 5.23999 49.8485 4.8772 49.5809 4.60955C49.3132 4.3419 48.9504 4.19119 48.5719 4.19043ZM48.5719 48.3239H1.42952C1.41047 48.3239 1.39161 48.3202 1.37404 48.3128C1.35646 48.3055 1.34051 48.2947 1.32711 48.2812C1.31371 48.2677 1.30312 48.2516 1.29597 48.234C1.28881 48.2163 1.28522 48.1974 1.28541 48.1784V16.0819H48.7146V48.1769C48.715 48.196 48.7116 48.2149 48.7046 48.2326C48.6976 48.2504 48.6872 48.2665 48.6739 48.2802C48.6606 48.2939 48.6448 48.3048 48.6273 48.3123C48.6098 48.3198 48.591 48.3237 48.5719 48.3239Z" fill="#FFCB45"/>
<path d="M13.6381 9.92881C13.9926 9.92881 14.2808 9.6406 14.2808 9.28611V0.642707C14.2808 0.558306 14.2642 0.474731 14.2319 0.396754C14.1996 0.318777 14.1522 0.247925 14.0925 0.188245C14.0328 0.128564 13.962 0.0812224 13.884 0.0489233C13.806 0.0166243 13.7225 0 13.6381 0C13.5537 0 13.4701 0.0166243 13.3921 0.0489233C13.3141 0.0812224 13.2433 0.128564 13.1836 0.188245C13.1239 0.247925 13.0766 0.318777 13.0443 0.396754C13.012 0.474731 12.9954 0.558306 12.9954 0.642707V9.28755C12.9954 9.64204 13.2836 9.92881 13.6381 9.92881Z" fill="#FFCB45"/>
<path d="M36.9166 9.92881C37.2711 9.92881 37.5593 9.6406 37.5593 9.28611V0.642707C37.5593 0.472251 37.4916 0.308776 37.3711 0.188245C37.2506 0.0677137 37.0871 0 36.9166 0C36.7462 0 36.5827 0.0677137 36.4622 0.188245C36.3416 0.308776 36.2739 0.472251 36.2739 0.642707V9.28755C36.2739 9.64204 36.5607 9.92881 36.9166 9.92881Z" fill="#FFCB45"/>
<path d="M10.3168 25.8049C12.273 25.8049 13.8588 24.219 13.8588 22.2628C13.8588 20.3066 12.273 18.7207 10.3168 18.7207C8.36051 18.7207 6.77466 20.3066 6.77466 22.2628C6.77466 24.219 8.36051 25.8049 10.3168 25.8049Z" fill="#FFCB45"/>
<path d="M20.4962 25.8049C22.4524 25.8049 24.0383 24.219 24.0383 22.2628C24.0383 20.3066 22.4524 18.7207 20.4962 18.7207C18.54 18.7207 16.9541 20.3066 16.9541 22.2628C16.9541 24.219 18.54 25.8049 20.4962 25.8049Z" fill="#FFCB45"/>
<path d="M30.6744 25.8049C32.6307 25.8049 34.2165 24.219 34.2165 22.2628C34.2165 20.3066 32.6307 18.7207 30.6744 18.7207C28.7182 18.7207 27.1323 20.3066 27.1323 22.2628C27.1323 24.219 28.7182 25.8049 30.6744 25.8049Z" fill="#FFCB45"/>
<path d="M10.3168 35.6687C12.273 35.6687 13.8588 34.0828 13.8588 32.1266C13.8588 30.1703 12.273 28.5845 10.3168 28.5845C8.36051 28.5845 6.77466 30.1703 6.77466 32.1266C6.77466 34.0828 8.36051 35.6687 10.3168 35.6687Z" fill="#FFCB45"/>
<path d="M20.4962 35.6687C22.4524 35.6687 24.0383 34.0828 24.0383 32.1266C24.0383 30.1703 22.4524 28.5845 20.4962 28.5845C18.54 28.5845 16.9541 30.1703 16.9541 32.1266C16.9541 34.0828 18.54 35.6687 20.4962 35.6687Z" fill="#FFCB45"/>
<path d="M30.6744 35.6687C32.6307 35.6687 34.2165 34.0828 34.2165 32.1266C34.2165 30.1703 32.6307 28.5845 30.6744 28.5845C28.7182 28.5845 27.1323 30.1703 27.1323 32.1266C27.1323 34.0828 28.7182 35.6687 30.6744 35.6687Z" fill="#FFCB45"/>
<path d="M10.3168 45.5329C12.273 45.5329 13.8588 43.9471 13.8588 41.9908C13.8588 40.0346 12.273 38.4487 10.3168 38.4487C8.36051 38.4487 6.77466 40.0346 6.77466 41.9908C6.77466 43.9471 8.36051 45.5329 10.3168 45.5329Z" fill="#FFCB45"/>
<path d="M20.4962 45.5329C22.4524 45.5329 24.0383 43.9471 24.0383 41.9908C24.0383 40.0346 22.4524 38.4487 20.4962 38.4487C18.54 38.4487 16.9541 40.0346 16.9541 41.9908C16.9541 43.9471 18.54 45.5329 20.4962 45.5329Z" fill="#FFCB45"/>
<path d="M30.6744 45.5329C32.6307 45.5329 34.2165 43.9471 34.2165 41.9908C34.2165 40.0346 32.6307 38.4487 30.6744 38.4487C28.7182 38.4487 27.1323 40.0346 27.1323 41.9908C27.1323 43.9471 28.7182 45.5329 30.6744 45.5329Z" fill="#FFCB45"/>
<path d="M40.6146 25.8049C42.5708 25.8049 44.1567 24.219 44.1567 22.2628C44.1567 20.3066 42.5708 18.7207 40.6146 18.7207C38.6584 18.7207 37.0725 20.3066 37.0725 22.2628C37.0725 24.219 38.6584 25.8049 40.6146 25.8049Z" fill="#FFCB45"/>
<path d="M40.6146 35.6687C42.5708 35.6687 44.1567 34.0828 44.1567 32.1266C44.1567 30.1703 42.5708 28.5845 40.6146 28.5845C38.6584 28.5845 37.0725 30.1703 37.0725 32.1266C37.0725 34.0828 38.6584 35.6687 40.6146 35.6687Z" fill="#FFCB45"/>
<path d="M40.6146 45.5329C42.5708 45.5329 44.1567 43.9471 44.1567 41.9908C44.1567 40.0346 42.5708 38.4487 40.6146 38.4487C38.6584 38.4487 37.0725 40.0346 37.0725 41.9908C37.0725 43.9471 38.6584 45.5329 40.6146 45.5329Z" fill="#FFCB45"/>
</svg>
