<svg width="87" height="68" viewBox="0 0 87 68" fill="none" xmlns="http://www.w3.org/2000/svg">
<path d="M77.0241 29.0187C75.0818 28.166 72.9834 27.7267 70.8622 27.7285H15.4048C13.2838 27.7265 11.1855 28.1652 9.2429 29.0168C6.49738 30.2174 4.16111 32.1919 2.51964 34.6989C0.878176 37.2059 0.00262353 40.1368 0 43.1334V64.7001C0 65.5172 0.324601 66.3009 0.902394 66.8787C1.48019 67.4565 2.26384 67.7811 3.08097 67.7811C3.89809 67.7811 4.68174 67.4565 5.25954 66.8787C5.83733 66.3009 6.16193 65.5172 6.16193 64.7001V63.1596C6.16693 62.7526 6.33083 62.3637 6.61865 62.0759C6.90647 61.788 7.2954 61.6241 7.70241 61.6191H78.5646C78.9716 61.6241 79.3606 61.788 79.6484 62.0759C79.9362 62.3637 80.1001 62.7526 80.1051 63.1596V64.7001C80.1051 65.5172 80.4297 66.3009 81.0075 66.8787C81.5853 67.4565 82.3689 67.7811 83.1861 67.7811C84.0032 67.7811 84.7868 67.4565 85.3646 66.8787C85.9424 66.3009 86.267 65.5172 86.267 64.7001V43.1334C86.264 40.1371 85.3883 37.2066 83.7469 34.7C82.1054 32.1934 79.7694 30.2192 77.0241 29.0187Z" fill="#0394ED"/>
<path d="M66.2408 0H20.0263C17.1664 0 14.4236 1.1361 12.4013 3.15838C10.379 5.18066 9.24292 7.92345 9.24292 10.7834V24.6477C9.24301 24.7671 9.27083 24.8848 9.3242 24.9916C9.37757 25.0983 9.45502 25.1912 9.55044 25.2629C9.64586 25.3346 9.75664 25.3832 9.87403 25.4047C9.99143 25.4263 10.1122 25.4203 10.2269 25.3872C11.9088 24.8952 13.6525 24.6462 15.4049 24.6477H16.2194C16.4095 24.6489 16.5933 24.5798 16.7355 24.4536C16.8777 24.3274 16.9682 24.1531 16.9896 23.9641C17.1577 22.4587 17.8744 21.0679 19.0028 20.0573C20.1313 19.0468 21.5925 18.4873 23.1073 18.4858H33.8906C35.4064 18.4859 36.869 19.0447 37.9987 20.0554C39.1284 21.0661 39.8459 22.4577 40.0141 23.9641C40.0354 24.1531 40.1259 24.3274 40.2681 24.4536C40.4103 24.5798 40.5942 24.6489 40.7843 24.6477H45.4943C45.6844 24.6489 45.8683 24.5798 46.0105 24.4536C46.1527 24.3274 46.2432 24.1531 46.2646 23.9641C46.4325 22.4597 47.1484 21.0697 48.2756 20.0593C49.4029 19.0489 50.8626 18.4888 52.3764 18.4858H63.1598C64.6756 18.4859 66.1382 19.0447 67.2679 20.0554C68.3976 21.0661 69.1151 22.4577 69.2832 23.9641C69.3046 24.1531 69.3951 24.3274 69.5373 24.4536C69.6795 24.5798 69.8634 24.6489 70.0535 24.6477H70.8622C72.6147 24.6469 74.3583 24.8965 76.0402 25.3891C76.155 25.4223 76.276 25.4282 76.3935 25.4066C76.5111 25.3849 76.622 25.3362 76.7174 25.2643C76.8129 25.1924 76.8903 25.0992 76.9435 24.9922C76.9968 24.8852 77.0244 24.7672 77.0242 24.6477V10.7834C77.0242 7.92345 75.8881 5.18066 73.8658 3.15838C71.8435 1.1361 69.1007 0 66.2408 0Z" fill="#0394ED"/>
</svg>
