<svg width="38" height="38" viewBox="0 0 38 38" fill="none" xmlns="http://www.w3.org/2000/svg">
<path d="M25.9037 22.1666C26.0303 21.1216 26.1253 20.0766 26.1253 19C26.1253 17.9233 26.0303 16.8783 25.9037 15.8333H31.2553C31.5087 16.8466 31.667 17.9075 31.667 19C31.667 20.0925 31.5087 21.1533 31.2553 22.1666H25.9037ZM23.1012 30.97C24.0512 29.2125 24.7795 27.3125 25.2862 25.3333H29.957C28.423 27.9747 25.9893 29.9756 23.1012 30.97ZM22.7053 22.1666H15.2953C15.137 21.1216 15.042 20.0766 15.042 19C15.042 17.9233 15.137 16.8625 15.2953 15.8333H22.7053C22.8478 16.8625 22.9587 17.9233 22.9587 19C22.9587 20.0766 22.8478 21.1216 22.7053 22.1666ZM19.0003 31.6033C17.6862 29.7033 16.6253 27.5975 15.9762 25.3333H22.0245C21.3753 27.5975 20.3145 29.7033 19.0003 31.6033ZM12.667 12.6666H8.04366C9.56185 10.018 11.9938 8.01398 14.8837 7.02996C13.9337 8.78746 13.2212 10.6875 12.667 12.6666ZM8.04366 25.3333H12.667C13.2212 27.3125 13.9337 29.2125 14.8837 30.97C11.9998 29.9751 9.57133 27.9739 8.04366 25.3333ZM6.74533 22.1666C6.49199 21.1533 6.33366 20.0925 6.33366 19C6.33366 17.9075 6.49199 16.8466 6.74533 15.8333H12.097C11.9703 16.8783 11.8753 17.9233 11.8753 19C11.8753 20.0766 11.9703 21.1216 12.097 22.1666H6.74533ZM19.0003 6.38079C20.3145 8.28079 21.3753 10.4025 22.0245 12.6666H15.9762C16.6253 10.4025 17.6862 8.28079 19.0003 6.38079ZM29.957 12.6666H25.2862C24.7906 10.7056 24.0568 8.81263 23.1012 7.02996C26.0145 8.02746 28.437 10.0383 29.957 12.6666ZM19.0003 3.16663C10.2445 3.16663 3.16699 10.2916 3.16699 19C3.16699 23.1992 4.83514 27.2265 7.80447 30.1958C9.27473 31.6661 11.0202 32.8324 12.9412 33.6281C14.8622 34.4238 16.9211 34.8333 19.0003 34.8333C23.1996 34.8333 27.2269 33.1651 30.1962 30.1958C33.1655 27.2265 34.8337 23.1992 34.8337 19C34.8337 16.9207 34.4241 14.8618 33.6284 12.9408C32.8327 11.0198 31.6664 9.27436 30.1962 7.8041C28.7259 6.33384 26.9805 5.16757 25.0595 4.37187C23.1385 3.57617 21.0796 3.16663 19.0003 3.16663Z" fill="#222222"/>
</svg>
