<svg width="34" height="34" viewBox="0 0 34 34" fill="none" xmlns="http://www.w3.org/2000/svg">
<path d="M17 0.53125C7.90234 0.53125 0.53125 7.90234 0.53125 17C0.53125 26.0977 7.90234 33.4688 17 33.4688C26.0977 33.4688 33.4688 26.0977 33.4688 17C33.4688 7.90234 26.0977 0.53125 17 0.53125ZM17 30.2812C9.66211 30.2812 3.71875 24.3379 3.71875 17C3.71875 9.66211 9.66211 3.71875 17 3.71875C24.3379 3.71875 30.2812 9.66211 30.2812 17C30.2812 24.3379 24.3379 30.2812 17 30.2812ZM21.1039 23.3484L15.466 19.2512C15.2602 19.0984 15.1406 18.8594 15.1406 18.607V7.70312C15.1406 7.26484 15.4992 6.90625 15.9375 6.90625H18.0625C18.5008 6.90625 18.8594 7.26484 18.8594 7.70312V17.1129L23.2953 20.3402C23.6539 20.5992 23.727 21.0973 23.468 21.4559L22.2195 23.1758C21.9605 23.5277 21.4625 23.6074 21.1039 23.3484Z" fill="#222222"/>
</svg>
