<svg width="39" height="39" viewBox="0 0 39 39" fill="none" xmlns="http://www.w3.org/2000/svg">
<path d="M3.25 11.375C3.25 10.513 3.59241 9.6864 4.2019 9.0769C4.8114 8.46741 5.63805 8.125 6.5 8.125H32.5C33.362 8.125 34.1886 8.46741 34.7981 9.0769C35.4076 9.6864 35.75 10.513 35.75 11.375V27.625C35.75 28.487 35.4076 29.3136 34.7981 29.9231C34.1886 30.5326 33.362 30.875 32.5 30.875H6.5C5.63805 30.875 4.8114 30.5326 4.2019 29.9231C3.59241 29.3136 3.25 28.487 3.25 27.625V11.375Z" stroke="#222222" stroke-width="3" stroke-linecap="round" stroke-linejoin="round"/>
<path d="M19.5 24.375C22.1924 24.375 24.375 22.1924 24.375 19.5C24.375 16.8076 22.1924 14.625 19.5 14.625C16.8076 14.625 14.625 16.8076 14.625 19.5C14.625 22.1924 16.8076 24.375 19.5 24.375Z" stroke="#222222" stroke-width="3" stroke-linecap="round" stroke-linejoin="round"/>
<path d="M3.25 14.625C4.97391 14.625 6.62721 13.9402 7.84619 12.7212C9.06518 11.5022 9.75 9.84891 9.75 8.125" stroke="#222222" stroke-width="3" stroke-linecap="round" stroke-linejoin="round"/>
<path d="M29.25 30.875C29.25 29.1511 29.9348 27.4978 31.1538 26.2788C32.3728 25.0598 34.0261 24.375 35.75 24.375" stroke="#222222" stroke-width="3" stroke-linecap="round" stroke-linejoin="round"/>
</svg>
