<svg width="33" height="33" viewBox="0 0 33 33" fill="none" xmlns="http://www.w3.org/2000/svg">
<path d="M22.7785 30.2486H22.817C23.543 30.2486 24.2292 29.9626 24.7489 29.4429L28.4779 25.7139C28.6057 25.5863 28.7071 25.4348 28.7763 25.268C28.8455 25.1011 28.8811 24.9223 28.8811 24.7417C28.8811 24.5612 28.8455 24.3824 28.7763 24.2155C28.7071 24.0487 28.6057 23.8972 28.4779 23.7696L22.9779 18.2696C22.8503 18.1418 22.6988 18.0404 22.532 17.9713C22.3652 17.9021 22.1864 17.8665 22.0058 17.8665C21.8252 17.8665 21.6464 17.9021 21.4796 17.9713C21.3128 18.0404 21.1613 18.1418 21.0337 18.2696L18.8419 20.4614C17.8258 20.1589 15.9297 19.4714 14.7279 18.2696C13.5262 17.0679 12.8387 15.1718 12.5362 14.1556L14.7279 11.9639C14.8557 11.8363 14.9571 11.6848 15.0263 11.518C15.0955 11.3511 15.1311 11.1723 15.1311 10.9917C15.1311 10.8112 15.0955 10.6324 15.0263 10.4655C14.9571 10.2987 14.8557 10.1472 14.7279 10.0196L9.22792 4.51962C8.96506 4.27151 8.61727 4.1333 8.2558 4.1333C7.89433 4.1333 7.54654 4.27151 7.28367 4.51962L3.55605 8.24863C3.03355 8.77113 2.7393 9.48887 2.7503 10.2218C2.78192 12.1798 3.3003 18.9805 8.66005 24.3403C14.0198 29.7 20.8205 30.217 22.7785 30.2486ZM8.25717 7.436L11.8129 10.9917L10.035 12.7696C9.87326 12.931 9.75441 13.1302 9.68932 13.3493C9.62424 13.5683 9.61499 13.8001 9.66242 14.0236C9.69542 14.1818 10.5025 17.9314 12.785 20.2139C15.0675 22.4964 18.8172 23.3035 18.9753 23.3365C19.1988 23.3842 19.4307 23.3751 19.6498 23.31C19.8688 23.2449 20.0681 23.1259 20.2293 22.9639L22.0072 21.186L25.5629 24.7417L22.8047 27.4986C21.0887 27.4698 15.2174 27.0091 10.6043 22.3946C5.97605 17.7664 5.5278 11.8745 5.5003 10.1929L8.25717 7.436ZM27.4989 15.1236H30.2489C30.2489 8.06987 24.9235 2.75 17.8602 2.75V5.5C23.4454 5.5 27.4989 9.54662 27.4989 15.1236Z" fill="#222222"/>
<path d="M17.874 11C20.7656 11 21.999 12.2334 21.999 15.125H24.749C24.749 10.6906 22.3084 8.25 17.874 8.25V11Z" fill="#222222"/>
</svg>
