<svg width="44" height="44" viewBox="0 0 44 44" fill="none" xmlns="http://www.w3.org/2000/svg">
<path d="M12.8333 20.1666H16.5V23.8333H12.8333V20.1666ZM38.5 11V36.6666C38.5 38.6833 36.85 40.3333 34.8333 40.3333H9.16667C8.19421 40.3333 7.26157 39.947 6.57394 39.2593C5.88631 38.5717 5.5 37.6391 5.5 36.6666L5.51833 11C5.51833 8.98329 7.13167 7.33329 9.16667 7.33329H11V3.66663H14.6667V7.33329H29.3333V3.66663H33V7.33329H34.8333C36.85 7.33329 38.5 8.98329 38.5 11ZM9.16667 14.6666H34.8333V11H9.16667V14.6666ZM34.8333 36.6666V18.3333H9.16667V36.6666H34.8333ZM27.5 23.8333H31.1667V20.1666H27.5V23.8333ZM20.1667 23.8333H23.8333V20.1666H20.1667V23.8333Z" fill="#222222"/>
</svg>
