<svg width="39" height="39" viewBox="0 0 39 39" fill="none" xmlns="http://www.w3.org/2000/svg">
<path d="M19.5 22.75C23.0848 22.75 26 19.8348 26 16.25C26 12.6652 23.0848 9.75 19.5 9.75C15.9152 9.75 13 12.6652 13 16.25C13 19.8348 15.9152 22.75 19.5 22.75ZM19.5 13C21.2924 13 22.75 14.4576 22.75 16.25C22.75 18.0424 21.2924 19.5 19.5 19.5C17.7076 19.5 16.25 18.0424 16.25 16.25C16.25 14.4576 17.7076 13 19.5 13Z" fill="#222222"/>
<path d="M18.5576 35.4478C18.8327 35.6442 19.1622 35.7497 19.5001 35.7497C19.8381 35.7497 20.1676 35.6442 20.4426 35.4478C20.9366 35.0984 32.5473 26.715 32.5001 16.25C32.5001 9.08213 26.668 3.25 19.5001 3.25C12.3323 3.25 6.50014 9.08212 6.50014 16.2419C6.45302 26.715 18.0636 35.0984 18.5576 35.4478ZM19.5001 6.5C24.8773 6.5 29.2501 10.8729 29.2501 16.2581C29.2843 23.4699 22.1196 29.9455 19.5001 32.0694C16.8823 29.9439 9.71602 23.4666 9.75014 16.25C9.75014 10.8729 14.123 6.5 19.5001 6.5Z" fill="#222222"/>
</svg>
