<svg width="44" height="44" viewBox="0 0 44 44" fill="none" xmlns="http://www.w3.org/2000/svg">
<path d="M33.6364 18C31.7309 18 30.1164 19.245 29.52 21H26.1018C25.4909 19.26 23.8909 18 22 18C20.1091 18 18.5091 19.26 17.8982 21H14.48C14.1809 20.1211 13.6239 19.3599 12.8862 18.8223C12.1486 18.2847 11.2669 17.9973 10.3636 18C7.94909 18 6 20.01 6 22.5C6 24.99 7.94909 27 10.3636 27C12.2691 27 13.8836 25.755 14.48 24H17.8982C18.5091 25.74 20.1091 27 22 27C23.8909 27 25.4909 25.74 26.1018 24H29.52C30.1164 25.755 31.7309 27 33.6364 27C36.0509 27 38 24.99 38 22.5C38 20.01 36.0509 18 33.6364 18Z" fill="#222222"/>
</svg>
