<svg width="26" height="26" viewBox="0 0 26 26" fill="none" xmlns="http://www.w3.org/2000/svg">
<path d="M22 1H4C2.34315 1 1 2.34315 1 4V22C1 23.6569 2.34315 25 4 25H22C23.6569 25 25 23.6569 25 22V4C25 2.34315 23.6569 1 22 1Z" stroke="black" stroke-width="2" stroke-linecap="round" stroke-linejoin="round"/>
<path d="M8.5 19V7H14.5C15.2956 7 16.0587 7.31607 16.6213 7.87868C17.1839 8.44129 17.5 9.20435 17.5 10C17.5 10.7956 17.1839 11.5587 16.6213 12.1213C16.0587 12.6839 15.2956 13 14.5 13H8.5" stroke="black" stroke-width="2" stroke-linecap="round" stroke-linejoin="round"/>
</svg>
