<svg width="44" height="49" viewBox="0 0 44 49" fill="none" xmlns="http://www.w3.org/2000/svg">
<path d="M17.545 17.5383C18.6218 16.4615 19.3551 15.0897 19.6521 13.5963C19.9491 12.1029 19.7966 10.555 19.2138 9.14828C18.631 7.74155 17.6441 6.53921 16.3778 5.69329C15.1116 4.84737 13.6229 4.39586 12.1 4.39586C10.5771 4.39586 9.08844 4.84737 7.82219 5.69329C6.55595 6.53921 5.56902 7.74155 4.98621 9.14828C4.40339 10.555 4.25086 12.1029 4.5479 13.5963C4.84494 15.0897 5.57822 16.4615 6.655 17.5383L12.1 22.9824L17.545 17.5383ZM12.1 29.2031L3.542 20.6508C1.85036 18.9586 0.698509 16.8029 0.232088 14.4563C-0.234333 12.1096 0.00561932 9.67738 0.921606 7.46706C1.83759 5.25675 3.38848 3.36762 5.37819 2.03851C7.36791 0.7094 9.70709 0 12.1 0C14.4929 0 16.8321 0.7094 18.8218 2.03851C20.8115 3.36762 22.3624 5.25675 23.2784 7.46706C24.1944 9.67738 24.4343 12.1096 23.9679 14.4563C23.5015 16.8029 22.3496 18.9586 20.658 20.6508L12.1 29.2075V29.2031ZM12.1 15.3936C11.2248 15.3936 10.3854 15.046 9.76655 14.4272C9.14768 13.8084 8.8 12.9692 8.8 12.0941C8.8 11.219 9.14768 10.3798 9.76655 9.76102C10.3854 9.14225 11.2248 8.79462 12.1 8.79462C12.9752 8.79462 13.8146 9.14225 14.4335 9.76102C15.0523 10.3798 15.4 11.219 15.4 12.0941C15.4 12.9692 15.0523 13.8084 14.4335 14.4272C13.8146 15.046 12.9752 15.3936 12.1 15.3936ZM31.9 42.7794L37.345 37.3352C38.4218 36.2585 39.1551 34.8867 39.4521 33.3933C39.7491 31.8999 39.5966 30.3519 39.0138 28.9452C38.431 27.5385 37.444 26.3361 36.1778 25.4902C34.9116 24.6443 33.4229 24.1928 31.9 24.1928C30.3771 24.1928 28.8884 24.6443 27.6222 25.4902C26.3559 26.3361 25.369 27.5385 24.7862 28.9452C24.2034 30.3519 24.0509 31.8999 24.3479 33.3933C24.6449 34.8867 25.3782 36.2585 26.455 37.3352L31.9 42.7794ZM40.458 40.4477L31.9 49L23.342 40.4455C21.6504 38.7533 20.4985 36.5977 20.0321 34.251C19.5657 31.9044 19.8056 29.4721 20.7216 27.2618C21.6376 25.0515 23.1885 23.1624 25.1782 21.8332C27.1679 20.5041 29.5071 19.7947 31.9 19.7947C34.2929 19.7947 36.6321 20.5041 38.6218 21.8332C40.6115 23.1624 42.1624 25.0515 43.0784 27.2618C43.9944 29.4721 44.2343 31.9044 43.7679 34.251C43.3015 36.5977 42.1496 38.7533 40.458 40.4455V40.4477ZM31.9 35.1905C31.0248 35.1905 30.1854 34.8429 29.5665 34.2241C28.9477 33.6054 28.6 32.7661 28.6 31.891C28.6 31.016 28.9477 30.1767 29.5665 29.558C30.1854 28.9392 31.0248 28.5916 31.9 28.5916C32.7752 28.5916 33.6146 28.9392 34.2334 29.558C34.8523 30.1767 35.2 31.016 35.2 31.891C35.2 32.7661 34.8523 33.6054 34.2334 34.2241C33.6146 34.8429 32.7752 35.1905 31.9 35.1905Z" fill="#FFCB45"/>
</svg>
