<svg width="65" height="55" viewBox="0 0 65 55" fill="none" xmlns="http://www.w3.org/2000/svg">
<path d="M5.34107 22.8662C6.23147 22.3168 7.33026 21.9758 8.65639 21.9758C9.31945 21.9758 9.94462 22.0706 10.494 22.2221C10.9487 22.3547 11.4223 22.1085 11.6118 21.6727C12.7484 19.0773 15.1544 17.0692 18.8486 17.0692C22.505 17.0692 24.892 19.0205 26.0476 21.578C26.1992 21.5591 26.3318 21.5591 26.4833 21.5591C27.639 21.5591 28.5294 21.9758 29.1735 22.601C29.5524 22.9799 30.1207 22.9799 30.4807 22.5821C31.1058 21.919 32.0152 21.4833 33.2087 21.4833C35.1789 21.4833 36.3725 22.6579 36.8271 24.0976C36.865 24.1355 36.9029 24.1734 36.9219 24.2113C36.9787 23.7945 37.1871 23.4156 37.4713 23.0936C38.0396 21.9569 39.1573 21.1044 40.8245 21.1044C41.0329 21.1044 41.2223 21.1233 41.4118 21.1423C41.5823 18.0922 43.6283 15.1747 47.5498 15.1747C48.0613 15.1747 48.535 15.2315 48.9896 15.3263C49.4443 15.421 49.9179 15.1936 50.0884 14.7579C50.5999 13.4697 51.3956 12.314 52.5702 11.4615C54.1615 10.3059 56.3781 9.69968 58.4051 9.98385C59.2008 10.0975 59.7502 9.16923 59.2766 8.52511C58.3104 7.19898 56.738 6.30858 54.9383 6.30858H40.3508V3.65633C40.3508 1.64819 38.7216 0 36.6945 0H27.1843C25.1762 0 23.528 1.64819 23.528 3.65633V6.30858H10.153C6.70508 6.30858 3.88232 9.13134 3.88232 12.5793V22.0895C3.88232 22.8473 4.71589 23.2641 5.34107 22.8662ZM25.3467 4.96351C25.3467 3.9405 26.1802 3.12587 27.1843 3.12587H36.6945C37.7175 3.12587 38.5322 3.95944 38.5322 4.96351V6.30858H25.3467V4.96351Z" fill="#0394ED"/>
<path d="M62.3645 17.9787C61.9288 18.0166 61.4741 18.0734 61.0384 18.1302C61.0005 18.1302 60.9626 18.1302 60.9436 18.1302C60.3942 17.9976 59.8448 17.9029 59.2955 17.884C59.2765 17.884 59.2386 17.884 59.2197 17.865C57.2115 17.1072 54.9761 17.1451 52.8353 17.7703C49.52 18.7554 46.5836 20.8583 43.6661 22.6201C42.4157 23.3779 41.1464 24.1357 39.8961 24.8935C38.8162 24.4199 37.6606 24.6283 36.6755 25.3103C36.2019 25.6513 35.7851 26.0491 35.3683 26.447C35.1978 26.5985 35.0273 26.769 34.8568 26.9206C33.8906 26.9206 32.9244 26.9206 31.9583 26.9206C29.1923 26.9016 26.4264 26.8448 23.6605 26.7501C22.2586 26.6932 20.8567 26.6364 19.4548 26.5417C18.2991 26.4659 17.1246 26.3144 15.969 26.3144C14.3965 26.2954 12.6347 26.5038 11.1381 27.0532C10.816 27.1669 9.60354 27.6026 9.18675 28.152C8.82681 28.3983 8.90258 29.1939 9.41409 29.4023C11.4033 30.198 13.5251 30.6148 15.609 31.1074C17.6929 31.5999 19.7768 32.0925 21.8608 32.604C23.13 32.926 24.3804 33.2481 25.6497 33.5891C25.3087 33.7975 24.9487 34.0248 24.6077 34.2332C22.808 35.3699 21.0272 36.4877 19.2653 37.6433C18.8296 37.8896 18.4697 38.1358 18.1097 38.4011C16.4994 38.5526 14.9081 38.2116 13.3356 37.8327C11.4791 37.397 9.62248 36.8855 7.82274 36.2603C6.97023 35.9761 6.11771 35.6351 5.24626 35.3889C4.3748 35.1426 3.57913 35.2184 2.74556 35.5215C2.32878 35.673 1.45732 35.9951 0.851092 36.4308C0.472198 36.6771 0.150138 36.9992 0.0364701 37.4349C-0.134032 38.1169 0.32064 38.6852 0.832147 39.0641C2.02566 39.9356 3.23812 40.7691 4.50742 41.5269C4.88631 41.7543 5.28415 42.0006 5.66304 42.2279C5.58726 42.2279 5.51148 42.2279 5.43571 42.2279C4.46953 42.2658 3.56018 42.3984 2.66978 42.7773C2.27194 42.9478 1.62782 43.0615 1.47627 43.5351C1.47627 43.573 1.47627 43.5919 1.47627 43.6109C1.34365 44.0276 1.57099 44.5391 2.04461 44.7096C3.54124 45.259 5.34098 45.941 6.85656 46.5283C6.68606 46.8125 6.51555 47.1346 6.38294 47.4377C6.21244 47.8734 6.40189 48.4796 6.95128 48.5554C8.05007 48.688 9.14887 48.5175 10.2287 48.2144C10.2855 48.1955 10.3424 48.1576 10.3803 48.1007C11.0812 48.5365 11.5927 49.0669 12.0474 49.8626C12.3884 50.4499 12.7105 51.0561 13.0325 51.6623C13.2978 52.1928 13.5061 52.818 13.9798 53.1969C16.0068 54.7693 18.015 51.5487 18.1855 49.8437C18.2234 49.389 18.2613 48.9343 18.2991 48.4796H37.4522C38.0016 50.3173 38.5889 52.136 39.7824 53.6705C39.8014 53.7084 39.8393 53.7273 39.8961 53.7463C40.4076 54.2199 41.3738 54.1062 41.98 53.9168C42.9841 53.5947 43.8555 52.8369 44.6323 52.1739C45.4658 51.4729 46.3183 50.7719 46.451 49.6353C46.4888 49.2564 46.4888 48.8775 46.5078 48.4796H54.9382C57.8746 48.4796 60.2806 46.0737 60.2806 43.1372V24.6283C60.2806 24.6283 60.2995 24.6283 60.2995 24.6093C61.2846 24.022 62.2129 23.3779 63.1033 22.677C63.9937 21.9571 65.0546 21.0477 64.9978 19.8163C64.941 18.4712 63.558 17.884 62.3645 17.9787ZM10.0393 28.2467C11.1759 27.7731 13.7714 27.1669 16.0068 27.2995C21.2735 27.6215 27.942 27.9436 32.9244 28.0952C33.436 28.1141 33.9475 28.1141 34.459 28.133C32.053 29.5918 29.647 31.0695 27.26 32.5472C23.9826 31.7515 12.9189 29.0424 10.0393 28.2467ZM49.4063 38.78C48.7243 39.2725 47.8718 39.6135 47.0951 39.9735V39.4809C47.5687 39.2536 47.8529 39.102 48.2696 38.8936C48.8001 38.6284 49.5958 38.2116 49.4063 37.5675C48.9706 37.8327 48.6296 38.0032 48.0991 38.2495C47.7581 38.4011 47.4171 38.5716 47.0761 38.7231C47.0951 38.0979 47.0951 37.4728 47.114 36.8476C47.114 36.6013 47.114 36.355 47.133 36.1088C47.1709 36.0898 47.2087 36.0709 47.2466 36.033C49.0085 35.1426 49.4253 35.3131 49.9178 35.8625C50.0504 36.014 50.1073 36.1845 50.1262 36.355C50.4672 37.7948 49.9368 38.4011 49.4063 38.78ZM56.7569 24.3441C54.4835 25.7839 49.2737 29.0613 46.792 30.6148C46.792 30.5769 46.792 30.558 46.773 30.5201C47.5497 29.8949 48.3454 29.2697 49.179 28.6824C50.4862 27.7541 51.8502 26.769 53.1005 25.7839C53.2332 25.6702 53.1384 25.5945 52.9679 25.6513C51.4524 26.2765 50.0315 27.1858 48.6106 28.0004C47.5687 28.5877 46.5267 29.175 45.4848 29.7623C45.3143 29.857 45.1627 30.0086 45.1248 30.2359C44.9164 31.3157 45.0112 32.4903 44.9733 33.5891C44.9543 34.7258 44.9164 35.8625 44.8975 36.9992C44.8407 39.2346 44.8028 41.4512 44.7459 43.6866C44.727 44.9559 44.6891 46.2252 44.6702 47.4945C44.6512 48.025 44.6512 48.5554 44.6133 49.1048C44.5944 49.389 44.5565 49.6542 44.3481 49.9005C43.6661 50.7341 42.8136 51.5108 42.0558 52.2307C41.8095 52.458 41.5443 52.6854 41.2601 52.8748L41.0328 53.0453C40.6728 53.2916 40.1613 53.159 39.9719 52.7611C38.6268 49.9384 37.6227 46.8504 36.7323 43.914C36.505 43.1372 36.2398 42.3605 35.9745 41.5838C35.463 40.0493 35.1031 38.3632 34.3832 36.8855C33.9475 35.9761 33.5875 36.4498 33.758 37.3402C33.8148 37.6243 33.8717 37.8896 33.9475 38.1548C30.9921 39.2157 21.6524 42.2847 19.1327 43.2509C18.8485 42.7205 19.3222 42.0763 19.3979 41.7732C19.4358 41.6027 19.3601 41.5269 19.2085 41.5269C19.0569 41.5269 18.7159 41.9627 18.5075 42.3416C18.1286 43.0046 17.8445 43.7245 17.5793 44.4444C17.1056 45.7705 16.8404 47.665 16.8404 48.8396C16.8404 49.9952 16.3478 50.6583 15.5711 51.2835C15.5143 51.3213 15.1354 51.5866 15.0786 51.6245C13.9229 52.3822 12.2368 45.9789 11.0433 46.2252C10.8918 46.2631 10.7592 46.2821 10.3992 46.6041C10.0393 46.9451 8.88364 47.3619 8.35319 47.2293C7.69012 47.0588 7.53857 46.5473 8.1448 45.9032C8.56158 45.4485 8.97836 44.9938 9.39515 44.577C11.1949 45.0128 13.203 43.4593 14.567 42.531C14.6428 42.4742 14.7565 42.3984 14.8702 42.3037C14.908 42.2847 14.908 42.2468 14.8702 42.2089C14.8512 42.19 14.8323 42.2089 14.7944 42.2279C14.3587 42.4363 13.7335 42.7205 13.3925 42.872C12.8999 43.0993 12.3505 43.3835 11.7822 43.6109C11.4601 43.7624 11.1191 43.8761 10.7592 43.9519C10.1908 44.0655 9.56565 43.8003 8.92153 43.3646C7.14073 42.1521 3.57913 39.7461 2.30983 38.9505C2.23405 38.9126 2.13933 38.8557 2.0825 38.7989C2.06355 38.78 2.04461 38.761 2.02566 38.7421C1.94988 38.6852 1.89305 38.6095 1.83622 38.5526C1.68466 38.3632 1.60888 38.1358 1.62782 37.8896H1.64677C1.64677 37.8517 1.64677 37.8327 1.66571 37.7948C1.68466 37.6243 1.77938 37.4538 1.89305 37.3023C2.04461 37.1318 2.29089 36.9802 2.53717 36.9044C2.55611 36.8855 4.12852 36.3171 4.28008 36.2603C4.69686 36.1088 4.99998 36.1088 5.60621 36.3929C7.046 37.056 8.27741 37.5486 9.79298 38.0601C11.2517 38.5526 13.9608 39.3483 15.0028 39.443C16.5941 39.7651 17.5224 39.6135 18.2991 39.2915C18.3181 39.2915 18.3181 39.2915 18.337 39.2915C18.3939 39.2725 18.4318 39.2346 18.4697 39.2157C18.9054 39.0262 19.2843 38.78 19.72 38.5526C19.7579 38.5337 19.7768 38.5147 19.7958 38.5147C21.0651 37.8138 22.3344 37.1128 23.5847 36.3929C26.6916 34.6121 29.7986 32.7934 32.8866 30.9747C35.9367 29.175 38.9678 27.3563 42.0179 25.5376C44.9164 23.7947 47.7771 21.9002 50.8082 20.4036C52.3806 19.6269 54.0857 18.9828 55.8475 19.0396C57.4199 19.0964 57.7988 19.0017 58.9734 20.0437C59.0302 20.1005 59.125 20.1194 59.2007 20.1005C61.0005 19.0585 62.2319 18.8691 62.8192 20.1384C62.6487 20.7446 57.723 23.7379 56.7569 24.3441Z" fill="#0394ED"/>
</svg>
