<svg width="190" height="55" viewBox="0 0 190 55" fill="none" xmlns="http://www.w3.org/2000/svg">
<path d="M5.34111 22.8662C6.23151 22.3168 7.3303 21.9758 8.65643 21.9758C9.3195 21.9758 9.94467 22.0706 10.4941 22.2221C10.9487 22.3547 11.4224 22.1085 11.6118 21.6727C12.7485 19.0773 15.1545 17.0692 18.8487 17.0692C22.505 17.0692 24.892 19.0205 26.0477 21.578C26.1992 21.5591 26.3318 21.5591 26.4834 21.5591C27.639 21.5591 28.5294 21.9758 29.1735 22.601C29.5524 22.9799 30.1208 22.9799 30.4807 22.5821C31.1059 21.919 32.0152 21.4833 33.2087 21.4833C35.179 21.4833 36.3725 22.6579 36.8272 24.0976C36.8651 24.1355 36.903 24.1734 36.9219 24.2113C36.9787 23.7945 37.1871 23.4156 37.4713 23.0936C38.0396 21.9569 39.1574 21.1044 40.8245 21.1044C41.0329 21.1044 41.2224 21.1233 41.4118 21.1423C41.5823 18.0922 43.6283 15.1747 47.5499 15.1747C48.0614 15.1747 48.535 15.2315 48.9897 15.3263C49.4443 15.421 49.918 15.1936 50.0885 14.7579C50.6 13.4697 51.3956 12.314 52.5702 11.4615C54.1616 10.3059 56.3781 9.69968 58.4052 9.98385C59.2009 10.0975 59.7503 9.16923 59.2766 8.52511C58.3105 7.19898 56.7381 6.30858 54.9383 6.30858H40.3509V3.65633C40.3509 1.64819 38.7217 0 36.6946 0H27.1843C25.1762 0 23.528 1.64819 23.528 3.65633V6.30858H10.1531C6.70513 6.30858 3.88237 9.13134 3.88237 12.5793V22.0895C3.88237 22.8473 4.71594 23.2641 5.34111 22.8662ZM25.3467 4.96351C25.3467 3.9405 26.1803 3.12587 27.1843 3.12587H36.6946C37.7176 3.12587 38.5322 3.95944 38.5322 4.96351V6.30858H25.3467V4.96351Z" fill="#0394ED"/>
<path d="M62.3645 17.9784C61.9288 18.0163 61.4741 18.0732 61.0384 18.13C61.0005 18.13 60.9626 18.13 60.9436 18.13C60.3942 17.9974 59.8448 17.9027 59.2955 17.8837C59.2765 17.8837 59.2386 17.8837 59.2197 17.8648C57.2115 17.107 54.9761 17.1449 52.8353 17.7701C49.52 18.7552 46.5836 20.858 43.6661 22.6199C42.4157 23.3777 41.1464 24.1355 39.8961 24.8933C38.8162 24.4196 37.6606 24.628 36.6755 25.31C36.2019 25.651 35.7851 26.0489 35.3683 26.4467C35.1978 26.5983 35.0273 26.7688 34.8568 26.9203C33.8906 26.9203 32.9244 26.9203 31.9583 26.9203C29.1923 26.9014 26.4264 26.8446 23.6605 26.7498C22.2586 26.693 20.8567 26.6362 19.4548 26.5414C18.2991 26.4657 17.1246 26.3141 15.969 26.3141C14.3965 26.2952 12.6347 26.5036 11.1381 27.0529C10.816 27.1666 9.60354 27.6023 9.18675 28.1517C8.82681 28.398 8.90258 29.1937 9.41409 29.4021C11.4033 30.1978 13.5251 30.6146 15.609 31.1071C17.6929 31.5997 19.7768 32.0922 21.8608 32.6037C23.13 32.9258 24.3804 33.2479 25.6497 33.5889C25.3087 33.7973 24.9487 34.0246 24.6077 34.233C22.808 35.3697 21.0272 36.4874 19.2653 37.643C18.8296 37.8893 18.4697 38.1356 18.1097 38.4008C16.4994 38.5524 14.9081 38.2114 13.3356 37.8325C11.4791 37.3967 9.62248 36.8852 7.82274 36.2601C6.97023 35.9759 6.11771 35.6349 5.24626 35.3886C4.3748 35.1423 3.57913 35.2181 2.74556 35.5212C2.32878 35.6728 1.45732 35.9948 0.851092 36.4306C0.472198 36.6769 0.150138 36.9989 0.0364701 37.4346C-0.134032 38.1166 0.32064 38.685 0.832147 39.0639C2.02566 39.9353 3.23812 40.7689 4.50742 41.5267C4.88631 41.754 5.28415 42.0003 5.66304 42.2276C5.58726 42.2276 5.51148 42.2276 5.43571 42.2276C4.46953 42.2655 3.56018 42.3981 2.66978 42.777C2.27194 42.9475 1.62782 43.0612 1.47627 43.5348C1.47627 43.5727 1.47627 43.5917 1.47627 43.6106C1.34365 44.0274 1.57099 44.5389 2.04461 44.7094C3.54124 45.2588 5.34098 45.9408 6.85656 46.5281C6.68606 46.8123 6.51555 47.1343 6.38294 47.4374C6.21244 47.8732 6.40189 48.4794 6.95128 48.5552C8.05007 48.6878 9.14887 48.5173 10.2287 48.2142C10.2855 48.1952 10.3424 48.1573 10.3803 48.1005C11.0812 48.5362 11.5927 49.0667 12.0474 49.8624C12.3884 50.4496 12.7105 51.0559 13.0325 51.6621C13.2978 52.1926 13.5061 52.8177 13.9798 53.1966C16.0068 54.769 18.015 51.5484 18.1855 49.8434C18.2234 49.3887 18.2613 48.9341 18.2991 48.4794H37.4522C38.0016 50.317 38.5889 52.1357 39.7824 53.6702C39.8014 53.7081 39.8393 53.7271 39.8961 53.746C40.4076 54.2196 41.3738 54.106 41.98 53.9165C42.9841 53.5945 43.8555 52.8367 44.6323 52.1736C45.4658 51.4727 46.3183 50.7717 46.451 49.635C46.4888 49.2561 46.4888 48.8772 46.5078 48.4794H54.9382C57.8746 48.4794 60.2806 46.0734 60.2806 43.137V24.628C60.2806 24.628 60.2995 24.628 60.2995 24.6091C61.2846 24.0218 62.2129 23.3777 63.1033 22.6767C63.9937 21.9568 65.0546 21.0475 64.9978 19.8161C64.941 18.471 63.558 17.8837 62.3645 17.9784ZM10.0393 28.2465C11.1759 27.7728 13.7714 27.1666 16.0068 27.2992C21.2735 27.6213 27.942 27.9433 32.9244 28.0949C33.436 28.1139 33.9475 28.1139 34.459 28.1328C32.053 29.5915 29.647 31.0692 27.26 32.5469C23.9826 31.7512 12.9189 29.0421 10.0393 28.2465ZM49.4063 38.7797C48.7243 39.2723 47.8718 39.6133 47.0951 39.9732V39.4807C47.5687 39.2533 47.8529 39.1018 48.2696 38.8934C48.8001 38.6282 49.5958 38.2114 49.4063 37.5673C48.9706 37.8325 48.6296 38.003 48.0991 38.2493C47.7581 38.4008 47.4171 38.5713 47.0761 38.7229C47.0951 38.0977 47.0951 37.4725 47.114 36.8474C47.114 36.6011 47.114 36.3548 47.133 36.1085C47.1709 36.0896 47.2087 36.0706 47.2466 36.0327C49.0085 35.1423 49.4253 35.3128 49.9178 35.8622C50.0504 36.0138 50.1073 36.1843 50.1262 36.3548C50.4672 37.7946 49.9368 38.4008 49.4063 38.7797ZM56.7569 24.3439C54.4835 25.7837 49.2737 29.0611 46.792 30.6146C46.792 30.5767 46.792 30.5577 46.773 30.5198C47.5497 29.8947 48.3454 29.2695 49.179 28.6822C50.4862 27.7539 51.8502 26.7688 53.1005 25.7837C53.2332 25.67 53.1384 25.5942 52.9679 25.651C51.4524 26.2762 50.0315 27.1856 48.6106 28.0002C47.5687 28.5875 46.5267 29.1748 45.4848 29.762C45.3143 29.8568 45.1627 30.0083 45.1248 30.2357C44.9164 31.3155 45.0112 32.4901 44.9733 33.5889C44.9543 34.7255 44.9164 35.8622 44.8975 36.9989C44.8407 39.2344 44.8028 41.4509 44.7459 43.6864C44.727 44.9557 44.6891 46.225 44.6702 47.4943C44.6512 48.0247 44.6512 48.5552 44.6133 49.1046C44.5944 49.3887 44.5565 49.654 44.3481 49.9002C43.6661 50.7338 42.8136 51.5105 42.0558 52.2304C41.8095 52.4578 41.5443 52.6851 41.2601 52.8746L41.0328 53.0451C40.6728 53.2913 40.1613 53.1587 39.9719 52.7609C38.6268 49.9381 37.6227 46.8502 36.7323 43.9137C36.505 43.137 36.2398 42.3603 35.9745 41.5835C35.463 40.049 35.1031 38.3629 34.3832 36.8852C33.9475 35.9759 33.5875 36.4495 33.758 37.3399C33.8148 37.6241 33.8717 37.8893 33.9475 38.1545C30.9921 39.2154 21.6524 42.2845 19.1327 43.2507C18.8485 42.7202 19.3222 42.0761 19.3979 41.773C19.4358 41.6025 19.3601 41.5267 19.2085 41.5267C19.0569 41.5267 18.7159 41.9624 18.5075 42.3413C18.1286 43.0044 17.8445 43.7243 17.5793 44.4442C17.1056 45.7703 16.8404 47.6648 16.8404 48.8393C16.8404 49.995 16.3478 50.658 15.5711 51.2832C15.5143 51.3211 15.1354 51.5863 15.0786 51.6242C13.9229 52.382 12.2368 45.9787 11.0433 46.225C10.8918 46.2629 10.7592 46.2818 10.3992 46.6039C10.0393 46.9449 8.88364 47.3617 8.35319 47.229C7.69012 47.0585 7.53857 46.547 8.1448 45.9029C8.56158 45.4482 8.97836 44.9936 9.39515 44.5768C11.1949 45.0125 13.203 43.4591 14.567 42.5308C14.6428 42.4739 14.7565 42.3981 14.8702 42.3034C14.908 42.2845 14.908 42.2466 14.8702 42.2087C14.8512 42.1898 14.8323 42.2087 14.7944 42.2276C14.3587 42.436 13.7335 42.7202 13.3925 42.8718C12.8999 43.0991 12.3505 43.3833 11.7822 43.6106C11.4601 43.7622 11.1191 43.8758 10.7592 43.9516C10.1908 44.0653 9.56565 43.8001 8.92153 43.3643C7.14073 42.1519 3.57913 39.7459 2.30983 38.9502C2.23405 38.9123 2.13933 38.8555 2.0825 38.7987C2.06355 38.7797 2.04461 38.7608 2.02566 38.7418C1.94988 38.685 1.89305 38.6092 1.83622 38.5524C1.68466 38.3629 1.60888 38.1356 1.62782 37.8893H1.64677C1.64677 37.8514 1.64677 37.8325 1.66571 37.7946C1.68466 37.6241 1.77938 37.4536 1.89305 37.302C2.04461 37.1315 2.29089 36.98 2.53717 36.9042C2.55611 36.8852 4.12852 36.3169 4.28008 36.2601C4.69686 36.1085 4.99998 36.1085 5.60621 36.3927C7.046 37.0557 8.27741 37.5483 9.79298 38.0598C11.2517 38.5524 13.9608 39.3481 15.0028 39.4428C16.5941 39.7648 17.5224 39.6133 18.2991 39.2912C18.3181 39.2912 18.3181 39.2912 18.337 39.2912C18.3939 39.2723 18.4318 39.2344 18.4697 39.2154C18.9054 39.026 19.2843 38.7797 19.72 38.5524C19.7579 38.5334 19.7768 38.5145 19.7958 38.5145C21.0651 37.8135 22.3344 37.1126 23.5847 36.3927C26.6916 34.6119 29.7986 32.7932 32.8866 30.9745C35.9367 29.1748 38.9678 27.3561 42.0179 25.5374C44.9164 23.7945 47.7771 21.9 50.8082 20.4034C52.3806 19.6266 54.0857 18.9825 55.8475 19.0393C57.4199 19.0962 57.7988 19.0015 58.9734 20.0434C59.0302 20.1002 59.125 20.1192 59.2007 20.1002C61.0005 19.0583 62.2319 18.8688 62.8192 20.1381C62.6487 20.7444 57.723 23.7376 56.7569 24.3439Z" fill="#0394ED"/>
<path d="M98.5994 31.4024H104.038V35.4452H98.5994V43.2422H93.7864V35.3971H78.4813L78 31.8355L93.1608 9.35913L98.5994 10.0811V31.4024ZM93.7864 15.7603L83.2461 31.4024H93.7864V15.7603Z" fill="#083856"/>
<path d="M123.242 21.9209H116.455V37.1298C116.455 39.2956 117.514 40.0176 118.814 40.0176C120.126 39.9117 121.395 39.4996 122.52 38.8143L123.819 41.317C121.925 42.8121 119.59 43.641 117.177 43.6754C114.338 43.6754 111.739 42.0871 111.739 36.7929V21.8728H106.829V18.7925L111.642 18.3112V12.3913L116.455 11.4287V18.3594H123.338L123.242 21.9209Z" fill="#083856"/>
<path d="M134.841 21.5838C135.717 20.485 136.801 19.5704 138.032 18.893C139.263 18.2157 140.616 17.7888 142.012 17.6372C143.47 17.6446 144.917 17.8885 146.296 18.3592V25.2417H142.927L142.205 21.6801C140.848 21.719 139.52 22.0743 138.325 22.7178C137.13 23.3612 136.102 24.2749 135.322 25.386V39.2954L140.135 40.4987V43.0976H126.563V40.4987L130.606 39.2954V21.9207L126.563 20.9581V18.3592H134.36L134.841 21.5838Z" fill="#083856"/>
<path d="M160.927 43.242H148.605V40.643L152.648 39.4398V21.9207L148.605 20.9582V18.3592H157.365V39.2954L160.927 40.4987V43.242ZM154.958 7.00063C156.836 7.00063 158.039 7.96321 158.039 10.3216C158.058 10.7427 157.993 11.1635 157.848 11.5594C157.704 11.9553 157.481 12.3184 157.195 12.6275C156.908 12.9366 156.562 13.1855 156.179 13.3598C155.795 13.534 155.38 13.6301 154.958 13.6425C154.526 13.6676 154.094 13.5969 153.692 13.4353C153.291 13.2738 152.93 13.0254 152.636 12.7081C152.341 12.3907 152.121 12.0122 151.99 11.5996C151.859 11.187 151.821 10.7506 151.878 10.3216C151.837 9.89569 151.887 9.46601 152.024 9.06074C152.161 8.65548 152.383 8.28381 152.673 7.97015C152.964 7.65649 153.318 7.40795 153.712 7.24085C154.106 7.07376 154.531 6.99189 154.958 7.00063Z" fill="#083856"/>
<path d="M172.238 20.7656C174.164 18.8506 176.742 17.7333 179.457 17.6372C186.339 17.6372 189.66 22.4501 189.66 29.9583C189.66 37.4665 185.617 43.6752 176.858 43.6752C175.405 43.6597 173.962 43.4327 172.574 43.0014V50.5096L177.387 51.4721V54.0711H163.911V51.4721L167.713 50.5096V21.632L163.671 20.6693V18.0704H171.708L172.238 20.7656ZM172.574 38.9585C174.069 39.6899 175.727 40.0215 177.387 39.9211C182.874 39.9211 184.511 35.6376 184.511 30.2952C184.511 24.9529 182.633 21.295 178.35 21.295C177.156 21.2651 175.976 21.5577 174.934 22.1421C173.892 22.7266 173.027 23.5812 172.43 24.6159L172.574 38.9585Z" fill="#083856"/>
</svg>
