<svg width="112" height="136" viewBox="0 0 112 136" fill="none" xmlns="http://www.w3.org/2000/svg">
<path d="M9.12327 39.2896C10.6438 38.3456 12.5202 37.7597 14.7849 37.7597C15.9172 37.7597 16.9848 37.9225 17.923 38.1829C18.6995 38.4107 19.5083 37.9876 19.8318 37.2389C21.7729 32.7793 25.8817 29.3289 32.1903 29.3289C38.4343 29.3289 42.5106 32.6817 44.4841 37.0761C44.7429 37.0436 44.9694 37.0436 45.2282 37.0436C47.2017 37.0436 48.7222 37.7597 49.8222 38.8339C50.4692 39.4849 51.4398 39.4849 52.0545 38.8013C53.1221 37.662 54.675 36.9134 56.7132 36.9134C60.0778 36.9134 62.116 38.9315 62.8924 41.4055C62.9571 41.4706 63.0218 41.5357 63.0542 41.6008C63.1513 40.8846 63.5071 40.2336 63.9924 39.6802C64.963 37.7271 66.8717 36.2623 69.7187 36.2623C70.0746 36.2623 70.3981 36.2949 70.7216 36.3274C71.0128 31.0866 74.5068 26.0737 81.2037 26.0737C82.0772 26.0737 82.886 26.1714 83.6625 26.3341C84.4389 26.4969 85.2477 26.1063 85.5389 25.3576C86.4124 23.1441 87.7712 21.1585 89.777 19.6936C92.4946 17.708 96.2798 16.6663 99.7415 17.1546C101.1 17.3499 102.038 15.7549 101.23 14.6482C99.5797 12.3696 96.8945 10.8396 93.821 10.8396H68.9099V6.28243C68.9099 2.83198 66.1277 0 62.666 0H46.4252C42.9959 0 40.1813 2.83198 40.1813 6.28243V10.8396H17.3407C11.4526 10.8396 6.63216 15.6898 6.63216 21.6142V37.955C6.63216 39.2571 8.05566 39.9732 9.12327 39.2896ZM43.2871 8.52848C43.2871 6.7707 44.7106 5.37099 46.4252 5.37099H62.666C64.413 5.37099 65.8041 6.80326 65.8041 8.52848V10.8396H43.2871V8.52848Z" fill="#0394ED"/>
<path d="M106.503 30.8912C105.759 30.9563 104.982 31.054 104.238 31.1517C104.174 31.1517 104.109 31.1517 104.077 31.1517C103.138 30.9238 102.2 30.761 101.262 30.7285C101.23 30.7285 101.165 30.7285 101.133 30.6959C97.7033 29.3939 93.8857 29.459 90.2299 30.5332C84.5683 32.2259 79.5537 35.8391 74.5715 38.8664C72.4363 40.1684 70.2687 41.4705 68.1335 42.7725C66.2894 41.9587 64.3159 42.3168 62.6336 43.4887C61.8248 44.0746 61.1131 44.7582 60.4013 45.4417C60.1101 45.7022 59.819 45.9951 59.5278 46.2555C57.8778 46.2555 56.2279 46.2555 54.5779 46.2555C49.8545 46.223 45.1311 46.1253 40.4077 45.9626C38.0137 45.8649 35.6196 45.7673 33.2256 45.6045C31.2521 45.4743 29.2463 45.2139 27.2728 45.2139C24.5876 45.1813 21.5788 45.5394 19.023 46.4834C18.473 46.6787 16.4025 47.4274 15.6907 48.3714C15.076 48.7945 15.2054 50.1617 16.079 50.5198C19.4759 51.8869 23.0994 52.6031 26.6581 53.4494C30.2168 54.2957 33.7755 55.1421 37.3343 56.021C39.5019 56.5743 41.6371 57.1277 43.8047 57.7136C43.2224 58.0717 42.6077 58.4623 42.0253 58.8204C38.9519 60.7735 35.9108 62.694 32.902 64.6797C32.1579 65.1028 31.5433 65.526 30.9286 65.9817C28.1786 66.2421 25.4611 65.6562 22.7758 65.0052C19.6053 64.2565 16.4348 63.3776 13.3614 62.3034C11.9055 61.8151 10.4497 61.2292 8.9615 60.806C7.4733 60.3829 6.11451 60.5131 4.69102 61.0339C3.97928 61.2943 2.49108 61.8477 1.45582 62.5964C0.808774 63.0195 0.258788 63.5729 0.064676 64.3216C-0.226493 65.4935 0.549957 66.47 1.42346 67.121C3.46164 68.6184 5.53218 70.0507 7.69977 71.3527C8.34681 71.7433 9.0262 72.1665 9.67324 72.5571C9.54384 72.5571 9.41443 72.5571 9.28502 72.5571C7.63506 72.6222 6.08216 72.8501 4.56161 73.5011C3.88222 73.7941 2.78225 73.9894 2.52343 74.8032C2.52343 74.8683 2.52343 74.9008 2.52343 74.9334C2.29697 75.6495 2.68519 76.5284 3.494 76.8214C6.04981 77.7654 9.12326 78.9372 11.7114 79.9463C11.4203 80.4346 11.1291 80.9879 10.9026 81.5088C10.6115 82.2575 10.935 83.2991 11.8732 83.4293C13.7496 83.6572 15.626 83.3642 17.4701 82.8434C17.5672 82.8108 17.6642 82.7457 17.7289 82.6481C18.9259 83.3968 19.7994 84.3082 20.5759 85.6754C21.1582 86.6845 21.7082 87.7261 22.2582 88.7677C22.7111 89.6792 23.067 90.7534 23.8758 91.4044C27.3375 94.1062 30.7668 88.5724 31.058 85.6428C31.1227 84.8616 31.1874 84.0803 31.2521 83.2991H63.96C64.8982 86.4566 65.9012 89.5815 67.9393 92.2182C67.9717 92.2833 68.0364 92.3159 68.1335 92.3484C69.007 93.1622 70.6569 92.9669 71.6922 92.6414C73.4068 92.088 74.895 90.7859 76.2215 89.6466C77.645 88.4422 79.1008 87.2378 79.3273 85.2847C79.392 84.6337 79.392 83.9827 79.4243 83.2991H93.821C98.8356 83.2991 102.944 79.1651 102.944 74.1196V42.3168C102.944 42.3168 102.977 42.3168 102.977 42.2843C104.659 41.2752 106.244 40.1684 107.765 38.964C109.285 37.7271 111.097 36.1646 111 34.0487C110.903 31.7376 108.541 30.7285 106.503 30.8912ZM17.1466 48.5341C19.0877 47.7203 23.5199 46.6787 27.3375 46.9066C36.3314 47.4599 47.7193 48.0133 56.2279 48.2737C57.1014 48.3063 57.9749 48.3063 58.8484 48.3388C54.7397 50.8453 50.631 53.3843 46.5546 55.9233C40.9577 54.5562 22.0641 49.9013 17.1466 48.5341ZM84.3742 66.6327C83.2095 67.4791 81.7537 68.065 80.4272 68.6835V67.8372C81.236 67.4465 81.7213 67.1861 82.4331 66.8281C83.3389 66.3723 84.6977 65.6562 84.3742 64.5495C83.6301 65.0052 83.0478 65.2981 82.1419 65.7213C81.5596 65.9817 80.9772 66.2747 80.3949 66.5351C80.4272 65.4609 80.4272 64.3867 80.4596 63.3125C80.4596 62.8893 80.4596 62.4662 80.4919 62.043C80.5566 62.0104 80.6214 61.9779 80.6861 61.9128C83.6948 60.3829 84.4065 60.6758 85.2477 61.6198C85.4742 61.8802 85.5712 62.1732 85.6036 62.4662C86.1859 64.9401 85.2801 65.9817 84.3742 66.6327ZM96.9268 41.8285C93.0445 44.3024 84.1477 49.9338 79.9096 52.6031C79.9096 52.538 79.9096 52.5054 79.8773 52.4403C81.2037 51.3661 82.5625 50.2919 83.986 49.2828C86.2183 47.6878 88.5476 45.9951 90.6829 44.3024C90.9093 44.1071 90.7476 43.9769 90.4564 44.0746C87.8682 45.1488 85.4418 46.7113 83.0154 48.111C81.236 49.1201 79.4567 50.1292 77.6773 51.1383C77.3861 51.301 77.1273 51.5614 77.0626 51.952C76.7067 53.8075 76.8685 55.8257 76.8038 57.7136C76.7715 59.6667 76.7068 61.6198 76.6744 63.5729C76.5773 67.414 76.5126 71.2225 76.4156 75.0636C76.3832 77.2445 76.3185 79.4255 76.2862 81.6064C76.2538 82.5179 76.2538 83.4293 76.1891 84.3733C76.1568 84.8616 76.0921 85.3173 75.7362 85.7405C74.5715 87.1727 73.1157 88.5073 71.8216 89.7443C71.401 90.1349 70.9481 90.5255 70.4628 90.851L70.0746 91.144C69.4599 91.5672 68.5864 91.3393 68.2629 90.6557C65.9659 85.8056 64.2512 80.4997 62.7307 75.4542C62.3424 74.1196 61.8895 72.785 61.4366 71.4504C60.5631 68.8137 59.9484 65.9166 58.719 63.3776C57.9749 61.8151 57.3602 62.6289 57.6514 64.1588C57.7484 64.6471 57.8455 65.1028 57.9749 65.5586C52.928 67.3814 36.9784 72.6548 32.6756 74.3149C32.1903 73.4035 32.9991 72.2967 33.1285 71.7759C33.1932 71.4829 33.0638 71.3527 32.805 71.3527C32.5462 71.3527 31.9638 72.1014 31.608 72.7524C30.9609 73.8917 30.4756 75.1287 30.0227 76.3656C29.2139 78.6442 28.761 81.8994 28.761 83.9176C28.761 85.9032 27.9198 87.0425 26.5934 88.1167C26.4963 88.1818 25.8493 88.6375 25.7522 88.7026C23.7788 90.0047 20.8994 79.0023 18.8612 79.4255C18.6024 79.4906 18.376 79.5231 17.7613 80.0765C17.1466 80.6624 15.1731 81.3786 14.2672 81.1507C13.1349 80.8577 12.8761 79.9788 13.9114 78.8721C14.6231 78.0909 15.3349 77.3096 16.0466 76.5935C19.1201 77.3422 22.5494 74.673 24.8787 73.0779C25.0081 72.9803 25.2022 72.8501 25.3964 72.6873C25.4611 72.6548 25.4611 72.5897 25.3964 72.5246C25.364 72.492 25.3317 72.5246 25.2669 72.5571C24.5228 72.9152 23.4552 73.4035 22.8729 73.6639C22.0317 74.0545 21.0935 74.5428 20.123 74.9334C19.573 75.1938 18.9906 75.3891 18.376 75.5193C17.4054 75.7146 16.3378 75.2589 15.2378 74.5102C12.1967 72.4269 6.11451 68.2929 3.94693 66.9257C3.81752 66.8606 3.65576 66.763 3.5587 66.6653C3.52635 66.6327 3.494 66.6002 3.46164 66.5676C3.33224 66.47 3.23518 66.3398 3.13812 66.2421C2.87931 65.9166 2.7499 65.526 2.78225 65.1028H2.8146C2.8146 65.0377 2.8146 65.0052 2.84696 64.9401C2.87931 64.6471 3.04107 64.3541 3.23518 64.0937C3.494 63.8008 3.91457 63.5404 4.33515 63.4102C4.3675 63.3776 7.05273 62.4011 7.31154 62.3034C8.02329 62.043 8.54092 62.043 9.57619 62.5313C12.0349 63.6706 14.1378 64.5169 16.726 65.3958C19.2171 66.2421 23.8435 67.6093 25.6228 67.7721C28.3404 68.3254 29.9256 68.065 31.2521 67.5116C31.2844 67.5116 31.2844 67.5116 31.3168 67.5116C31.4138 67.4791 31.4785 67.414 31.5432 67.3814C32.2873 67.0559 32.9344 66.6328 33.6785 66.2421C33.7432 66.2096 33.7755 66.177 33.8079 66.177C35.9755 64.9726 38.1431 63.7682 40.2783 62.5313C45.584 59.4714 50.8898 56.3465 56.1632 53.2215C61.3719 50.1292 66.5482 47.0042 71.7569 43.8793C76.7068 40.8845 81.5919 37.6294 86.7682 35.0578C89.4535 33.7232 92.3652 32.6165 95.3739 32.7141C98.0591 32.8118 98.7062 32.649 100.712 34.4394C100.809 34.537 100.971 34.5696 101.1 34.537C104.174 32.7467 106.277 32.4212 107.279 34.6021C106.988 35.6438 98.5768 40.7869 96.9268 41.8285Z" fill="#0394ED"/>
<path d="M31.8667 120.603H35.5225V123.337H31.8667V128.611H28.5668V123.337H18.3112L17.9877 120.929L28.1786 105.727L31.8344 106.215V120.603H31.8667ZM28.5668 110.024L21.5141 120.603H28.5668V110.024Z" fill="#083856"/>
<path d="M48.431 114.191H43.8046V124.477C43.8046 125.942 44.5164 126.43 45.3899 126.43C46.1663 126.43 47.0398 126.072 47.881 125.616L48.7545 127.309C47.331 128.35 45.8752 128.904 44.2899 128.904C42.3811 128.904 40.6341 127.83 40.6341 124.249V114.158H37.4636V112.075L40.6341 111.749V107.745L43.8046 107.094V111.782H48.431V114.191Z" fill="#083856"/>
<path d="M56.1955 113.962C57.0043 113.051 58.8484 111.293 61.016 111.293C62.6012 111.293 63.8953 111.782 63.8953 111.782L63.7335 116.436H61.663L61.1777 114.028C58.7837 114.028 57.2631 115.59 56.5514 116.534V126.039L59.7219 126.853V128.611H50.6309V126.853L53.3485 126.039V114.19L50.6309 113.539V111.782L55.872 111.619L56.1955 113.962Z" fill="#083856"/>
<path d="M73.7304 128.611H65.4482V126.853L68.1658 126.039V114.19L65.4482 113.539V111.782L71.3363 111.619V126.039L73.7304 126.853V128.611ZM69.5893 104.099C70.851 104.099 71.6598 104.751 71.6598 106.346C71.6598 107.778 70.5599 108.592 69.5893 108.592C68.3276 108.592 67.5188 107.778 67.5188 106.346C67.5188 104.913 68.4893 104.099 69.5893 104.099Z" fill="#083856"/>
<path d="M81.333 113.442C82.2712 112.53 83.9859 111.326 86.1858 111.326C90.8122 111.326 93.0445 114.679 93.0445 119.659C93.0445 125.095 90.3269 128.936 84.4388 128.936C83.3712 128.936 82.433 128.741 81.5595 128.48V133.559L84.8918 134.21V135.967H75.8332V134.21L78.389 133.559V114.19L75.6714 113.539V111.782L81.0742 111.619L81.333 113.442ZM81.5595 125.746C81.5595 125.746 82.4977 126.397 84.8918 126.397C88.5799 126.397 89.6799 123.5 89.6799 119.985C89.6799 116.469 88.4181 113.897 85.5388 113.897C82.6595 113.897 81.5595 116.143 81.5595 116.143V125.746Z" fill="#083856"/>
</svg>
