<svg width="816" height="836" viewBox="0 0 816 836" fill="none" xmlns="http://www.w3.org/2000/svg">
<path d="M219.012 652.009C230.835 634.19 252.056 606.991 286.19 582.893C319.647 559.303 351.714 548.457 372.258 543.213C372.577 530.864 374.739 512.894 384.419 494.586C395.208 474.172 407.877 467.481 424.098 447.875C434.098 435.77 446.879 417.03 456.728 389.323C459.51 379.192 465.206 364.699 478.156 353.816C491.426 342.669 502.046 343.91 513.023 334.944C521.031 328.384 529.752 315.978 531.556 289.963C531.857 285.734 536.669 283.553 540.071 286.053C562.326 302.444 580.389 305.621 593.641 304.85C624.523 303.065 640.18 279.286 685.141 248.854C707.208 233.93 727.808 223.159 744.688 215.452C749.142 213.422 753.766 217.99 751.755 222.445C745.74 235.866 740.797 253.102 742.413 272.52C745.195 305.884 765.213 319.568 775.044 352.181C781.115 372.312 784.46 403.496 767.694 448.157C745.251 469.078 717.696 499.041 692.678 539.416C673.675 570.074 660.894 599.021 652.21 623.156C643.469 648.118 634.729 673.062 625.97 698.024C608.414 716.294 580.427 740.223 540.861 753.7C504.283 766.144 481.897 761.463 446.804 762.666C344.12 766.144 323.951 813.38 219.651 826.012C192.471 829.301 152.529 831.106 102.343 822.046C98.2456 821.312 96.554 816.35 99.317 813.23C115.651 794.734 126.666 778.061 133.902 765.843C154.221 731.464 157.022 711.107 179.333 685.223C193.599 668.738 208.693 658.231 219.012 652.009Z" stroke="#FFCB45" stroke-width="4" stroke-miterlimit="10" stroke-dasharray="10 10"/>
<path d="M235.94 648.849C235.94 659.436 227.358 668.018 216.772 668.018C206.185 668.018 197.604 659.436 197.604 648.849C197.604 638.263 206.185 629.681 216.772 629.681C227.358 629.681 235.94 638.263 235.94 648.849Z" fill="#8DD21B"/>
<path d="M215.731 473.92C184.686 473.92 159.425 499.073 159.425 529.952C159.221 575.121 213.592 612.574 215.731 614.088C215.731 614.088 272.242 575.121 272.038 529.987C272.038 499.073 246.777 473.92 215.731 473.92ZM215.731 558.021C200.177 558.021 187.578 545.476 187.578 529.987C187.578 514.498 200.177 501.953 215.731 501.953C231.286 501.953 243.885 514.498 243.885 529.987C243.885 545.476 231.286 558.021 215.731 558.021Z" fill="#0394ED"/>
<path d="M81.2344 429H78.2812V414.328H70.7695V429H67.8164V411.938H81.2344V429ZM90.1289 429.234C88.3242 429.234 86.8594 428.668 85.7344 427.535C84.6172 426.395 84.0586 424.879 84.0586 422.988V422.637C84.0586 421.371 84.3008 420.242 84.7852 419.25C85.2773 418.25 85.9648 417.473 86.8477 416.918C87.7305 416.363 88.7148 416.086 89.8008 416.086C91.5273 416.086 92.8594 416.637 93.7969 417.738C94.7422 418.84 95.2148 420.398 95.2148 422.414V423.562H86.9297C87.0156 424.609 87.3633 425.438 87.9727 426.047C88.5898 426.656 89.3633 426.961 90.293 426.961C91.5977 426.961 92.6602 426.434 93.4805 425.379L95.0156 426.844C94.5078 427.602 93.8281 428.191 92.9766 428.613C92.1328 429.027 91.1836 429.234 90.1289 429.234ZM89.7891 418.371C89.0078 418.371 88.375 418.645 87.8906 419.191C87.4141 419.738 87.1094 420.5 86.9766 421.477H92.4023V421.266C92.3398 420.312 92.0859 419.594 91.6406 419.109C91.1953 418.617 90.5781 418.371 89.7891 418.371ZM108.539 422.789C108.539 424.75 108.094 426.316 107.203 427.488C106.312 428.652 105.117 429.234 103.617 429.234C102.227 429.234 101.113 428.777 100.277 427.863V433.875H97.4297V416.32H100.055L100.172 417.609C101.008 416.594 102.145 416.086 103.582 416.086C105.129 416.086 106.34 416.664 107.215 417.82C108.098 418.969 108.539 420.566 108.539 422.613V422.789ZM105.703 422.543C105.703 421.277 105.449 420.273 104.941 419.531C104.441 418.789 103.723 418.418 102.785 418.418C101.621 418.418 100.785 418.898 100.277 419.859V425.484C100.793 426.469 101.637 426.961 102.809 426.961C103.715 426.961 104.422 426.598 104.93 425.871C105.445 425.137 105.703 424.027 105.703 422.543ZM116.543 429.234C114.738 429.234 113.273 428.668 112.148 427.535C111.031 426.395 110.473 424.879 110.473 422.988V422.637C110.473 421.371 110.715 420.242 111.199 419.25C111.691 418.25 112.379 417.473 113.262 416.918C114.145 416.363 115.129 416.086 116.215 416.086C117.941 416.086 119.273 416.637 120.211 417.738C121.156 418.84 121.629 420.398 121.629 422.414V423.562H113.344C113.43 424.609 113.777 425.438 114.387 426.047C115.004 426.656 115.777 426.961 116.707 426.961C118.012 426.961 119.074 426.434 119.895 425.379L121.43 426.844C120.922 427.602 120.242 428.191 119.391 428.613C118.547 429.027 117.598 429.234 116.543 429.234ZM116.203 418.371C115.422 418.371 114.789 418.645 114.305 419.191C113.828 419.738 113.523 420.5 113.391 421.477H118.816V421.266C118.754 420.312 118.5 419.594 118.055 419.109C117.609 418.617 116.992 418.371 116.203 418.371ZM129.059 426.961C129.77 426.961 130.359 426.754 130.828 426.34C131.297 425.926 131.547 425.414 131.578 424.805H134.262C134.23 425.594 133.984 426.332 133.523 427.02C133.062 427.699 132.438 428.238 131.648 428.637C130.859 429.035 130.008 429.234 129.094 429.234C127.32 429.234 125.914 428.66 124.875 427.512C123.836 426.363 123.316 424.777 123.316 422.754V422.461C123.316 420.531 123.832 418.988 124.863 417.832C125.895 416.668 127.301 416.086 129.082 416.086C130.59 416.086 131.816 416.527 132.762 417.41C133.715 418.285 134.215 419.438 134.262 420.867H131.578C131.547 420.141 131.297 419.543 130.828 419.074C130.367 418.605 129.777 418.371 129.059 418.371C128.137 418.371 127.426 418.707 126.926 419.379C126.426 420.043 126.172 421.055 126.164 422.414V422.871C126.164 424.246 126.41 425.273 126.902 425.953C127.402 426.625 128.121 426.961 129.059 426.961ZM147.188 416.32V429H144.34V418.617H140.754L140.52 423.035C140.371 425.16 139.961 426.688 139.289 427.617C138.625 428.539 137.605 429 136.23 429H135.352L135.34 426.633L135.926 426.574C136.551 426.488 137.004 426.109 137.285 425.438C137.574 424.758 137.758 423.523 137.836 421.734L138.07 416.32H147.188ZM157.793 429C157.668 428.758 157.559 428.363 157.465 427.816C156.559 428.762 155.449 429.234 154.137 429.234C152.863 429.234 151.824 428.871 151.02 428.145C150.215 427.418 149.812 426.52 149.812 425.449C149.812 424.098 150.312 423.062 151.312 422.344C152.32 421.617 153.758 421.254 155.625 421.254H157.371V420.422C157.371 419.766 157.188 419.242 156.82 418.852C156.453 418.453 155.895 418.254 155.145 418.254C154.496 418.254 153.965 418.418 153.551 418.746C153.137 419.066 152.93 419.477 152.93 419.977H150.082C150.082 419.281 150.312 418.633 150.773 418.031C151.234 417.422 151.859 416.945 152.648 416.602C153.445 416.258 154.332 416.086 155.309 416.086C156.793 416.086 157.977 416.461 158.859 417.211C159.742 417.953 160.195 419 160.219 420.352V426.07C160.219 427.211 160.379 428.121 160.699 428.801V429H157.793ZM154.664 426.949C155.227 426.949 155.754 426.812 156.246 426.539C156.746 426.266 157.121 425.898 157.371 425.438V423.047H155.836C154.781 423.047 153.988 423.23 153.457 423.598C152.926 423.965 152.66 424.484 152.66 425.156C152.66 425.703 152.84 426.141 153.199 426.469C153.566 426.789 154.055 426.949 154.664 426.949ZM163.418 429V416.32H168.562C170.297 416.32 171.617 416.625 172.523 417.234C173.43 417.836 173.883 418.703 173.883 419.836C173.883 420.422 173.699 420.949 173.332 421.418C172.973 421.879 172.438 422.234 171.727 422.484C172.555 422.656 173.211 423.004 173.695 423.527C174.18 424.051 174.422 424.668 174.422 425.379C174.422 426.559 173.984 427.457 173.109 428.074C172.242 428.691 170.992 429 169.359 429H163.418ZM166.266 423.598V426.75H169.383C170.844 426.75 171.574 426.227 171.574 425.18C171.574 424.125 170.832 423.598 169.348 423.598H166.266ZM166.266 421.559H168.609C170.227 421.559 171.035 421.082 171.035 420.129C171.035 419.129 170.27 418.613 168.738 418.582H166.266V421.559ZM187.664 416.32V429H184.816V418.617H181.23L180.996 423.035C180.848 425.16 180.438 426.688 179.766 427.617C179.102 428.539 178.082 429 176.707 429H175.828L175.816 426.633L176.402 426.574C177.027 426.488 177.48 426.109 177.762 425.438C178.051 424.758 178.234 423.523 178.312 421.734L178.547 416.32H187.664ZM193.758 420.352H196.547C197.586 420.352 198.492 420.531 199.266 420.891C200.039 421.25 200.625 421.754 201.023 422.402C201.43 423.051 201.633 423.805 201.633 424.664C201.633 425.969 201.172 427.016 200.25 427.805C199.328 428.594 198.102 428.992 196.57 429H190.91V416.32H193.758V420.352ZM193.758 422.637V426.727H196.535C197.23 426.727 197.777 426.555 198.176 426.211C198.582 425.859 198.785 425.363 198.785 424.723C198.785 424.082 198.586 423.578 198.188 423.211C197.797 422.836 197.266 422.645 196.594 422.637H193.758ZM209.438 422.895H203.285V420.598H209.438V422.895ZM76.2656 444.59C76.2656 443.824 75.9766 443.215 75.3984 442.762C74.8203 442.309 74.0352 442.082 73.043 442.082C72.1914 442.082 71.4805 442.309 70.9102 442.762C70.3398 443.207 70.0547 443.785 70.0547 444.496H67.1016C67.1016 443.566 67.3594 442.738 67.875 442.012C68.3906 441.285 69.1055 440.723 70.0195 440.324C70.9336 439.918 71.9414 439.715 73.043 439.715C74.9961 439.715 76.5117 440.141 77.5898 440.992C78.6758 441.844 79.2188 443.035 79.2188 444.566C79.2188 445.34 78.9844 446.051 78.5156 446.699C78.0469 447.348 77.3906 447.859 76.5469 448.234C77.5 448.562 78.2266 449.062 78.7266 449.734C79.2344 450.398 79.4883 451.227 79.4883 452.219C79.4883 453.75 78.9023 454.969 77.7305 455.875C76.5586 456.773 74.9961 457.223 73.043 457.223C71.8398 457.223 70.75 457.008 69.7734 456.578C68.8047 456.148 68.0742 455.562 67.582 454.82C67.0977 454.078 66.8555 453.227 66.8555 452.266H69.8086C69.8086 453 70.1133 453.621 70.7227 454.129C71.332 454.629 72.1055 454.879 73.043 454.879C74.0898 454.879 74.9297 454.633 75.5625 454.141C76.2031 453.648 76.5234 453.008 76.5234 452.219C76.5234 451.258 76.2422 450.562 75.6797 450.133C75.125 449.695 74.3086 449.477 73.2305 449.477H71.2266V447.133H73.125C75.2188 447.133 76.2656 446.285 76.2656 444.59ZM89.543 457C89.418 456.758 89.3086 456.363 89.2148 455.816C88.3086 456.762 87.1992 457.234 85.8867 457.234C84.6133 457.234 83.5742 456.871 82.7695 456.145C81.9648 455.418 81.5625 454.52 81.5625 453.449C81.5625 452.098 82.0625 451.062 83.0625 450.344C84.0703 449.617 85.5078 449.254 87.375 449.254H89.1211V448.422C89.1211 447.766 88.9375 447.242 88.5703 446.852C88.2031 446.453 87.6445 446.254 86.8945 446.254C86.2461 446.254 85.7148 446.418 85.3008 446.746C84.8867 447.066 84.6797 447.477 84.6797 447.977H81.832C81.832 447.281 82.0625 446.633 82.5234 446.031C82.9844 445.422 83.6094 444.945 84.3984 444.602C85.1953 444.258 86.082 444.086 87.0586 444.086C88.543 444.086 89.7266 444.461 90.6094 445.211C91.4922 445.953 91.9453 447 91.9688 448.352V454.07C91.9688 455.211 92.1289 456.121 92.4492 456.801V457H89.543ZM86.4141 454.949C86.9766 454.949 87.5039 454.812 87.9961 454.539C88.4961 454.266 88.8711 453.898 89.1211 453.438V451.047H87.5859C86.5312 451.047 85.7383 451.23 85.207 451.598C84.6758 451.965 84.4102 452.484 84.4102 453.156C84.4102 453.703 84.5898 454.141 84.9492 454.469C85.3164 454.789 85.8047 454.949 86.4141 454.949ZM105.727 444.32V457H102.879V446.617H99.293L99.0586 451.035C98.9102 453.16 98.5 454.688 97.8281 455.617C97.1641 456.539 96.1445 457 94.7695 457H93.8906L93.8789 454.633L94.4648 454.574C95.0898 454.488 95.543 454.109 95.8242 453.438C96.1133 452.758 96.2969 451.523 96.375 449.734L96.6094 444.32H105.727ZM114.34 457.234C112.535 457.234 111.07 456.668 109.945 455.535C108.828 454.395 108.27 452.879 108.27 450.988V450.637C108.27 449.371 108.512 448.242 108.996 447.25C109.488 446.25 110.176 445.473 111.059 444.918C111.941 444.363 112.926 444.086 114.012 444.086C115.738 444.086 117.07 444.637 118.008 445.738C118.953 446.84 119.426 448.398 119.426 450.414V451.562H111.141C111.227 452.609 111.574 453.438 112.184 454.047C112.801 454.656 113.574 454.961 114.504 454.961C115.809 454.961 116.871 454.434 117.691 453.379L119.227 454.844C118.719 455.602 118.039 456.191 117.188 456.613C116.344 457.027 115.395 457.234 114.34 457.234ZM114 446.371C113.219 446.371 112.586 446.645 112.102 447.191C111.625 447.738 111.32 448.5 111.188 449.477H116.613V449.266C116.551 448.312 116.297 447.594 115.852 447.109C115.406 446.617 114.789 446.371 114 446.371ZM126.855 454.961C127.566 454.961 128.156 454.754 128.625 454.34C129.094 453.926 129.344 453.414 129.375 452.805H132.059C132.027 453.594 131.781 454.332 131.32 455.02C130.859 455.699 130.234 456.238 129.445 456.637C128.656 457.035 127.805 457.234 126.891 457.234C125.117 457.234 123.711 456.66 122.672 455.512C121.633 454.363 121.113 452.777 121.113 450.754V450.461C121.113 448.531 121.629 446.988 122.66 445.832C123.691 444.668 125.098 444.086 126.879 444.086C128.387 444.086 129.613 444.527 130.559 445.41C131.512 446.285 132.012 447.438 132.059 448.867H129.375C129.344 448.141 129.094 447.543 128.625 447.074C128.164 446.605 127.574 446.371 126.855 446.371C125.934 446.371 125.223 446.707 124.723 447.379C124.223 448.043 123.969 449.055 123.961 450.414V450.871C123.961 452.246 124.207 453.273 124.699 453.953C125.199 454.625 125.918 454.961 126.855 454.961ZM139.418 454.961C140.129 454.961 140.719 454.754 141.188 454.34C141.656 453.926 141.906 453.414 141.938 452.805H144.621C144.59 453.594 144.344 454.332 143.883 455.02C143.422 455.699 142.797 456.238 142.008 456.637C141.219 457.035 140.367 457.234 139.453 457.234C137.68 457.234 136.273 456.66 135.234 455.512C134.195 454.363 133.676 452.777 133.676 450.754V450.461C133.676 448.531 134.191 446.988 135.223 445.832C136.254 444.668 137.66 444.086 139.441 444.086C140.949 444.086 142.176 444.527 143.121 445.41C144.074 446.285 144.574 447.438 144.621 448.867H141.938C141.906 448.141 141.656 447.543 141.188 447.074C140.727 446.605 140.137 446.371 139.418 446.371C138.496 446.371 137.785 446.707 137.285 447.379C136.785 448.043 136.531 449.055 136.523 450.414V450.871C136.523 452.246 136.77 453.273 137.262 453.953C137.762 454.625 138.48 454.961 139.418 454.961ZM151.277 451.984H149.836V457H146.988V444.32H149.836V449.383H151.09L154.594 444.32H158.109L153.527 450.391L158.496 457H154.793L151.277 451.984ZM167.977 444.32H170.812V457H167.977V448.539L163.008 457H160.172V444.32H163.008V452.781L167.977 444.32ZM181.758 444.32H184.594V457H181.758V448.539L176.789 457H173.953V444.32H176.789V452.781L181.758 444.32ZM183.094 439.457C183.094 440.441 182.75 441.238 182.062 441.848C181.375 442.457 180.457 442.762 179.309 442.762C178.16 442.762 177.242 442.457 176.555 441.848C175.867 441.238 175.523 440.441 175.523 439.457H177.656C177.656 439.973 177.801 440.375 178.09 440.664C178.387 440.945 178.793 441.086 179.309 441.086C179.824 441.086 180.227 440.945 180.516 440.664C180.805 440.375 180.949 439.973 180.949 439.457H183.094Z" fill="#222222"/>
<path d="M386.336 543.702C386.336 554.289 377.755 562.871 367.168 562.871C356.582 562.871 348 554.289 348 543.702C348 533.116 356.582 524.534 367.168 524.534C377.755 524.534 386.336 533.116 386.336 543.702Z" fill="#8DD21B"/>
<path d="M366.731 366.92C335.686 366.92 310.425 392.073 310.425 422.952C310.221 468.121 364.592 505.574 366.731 507.088C366.731 507.088 423.242 468.121 423.038 422.987C423.038 392.073 397.777 366.92 366.731 366.92ZM366.731 451.021C351.177 451.021 338.578 438.476 338.578 422.987C338.578 407.498 351.177 394.953 366.731 394.953C382.286 394.953 394.885 407.498 394.885 422.987C394.885 438.476 382.286 451.021 366.731 451.021Z" fill="#0394ED"/>
<path d="M289.699 337.66V344H286.734V326.938H293.262C295.168 326.938 296.68 327.434 297.797 328.426C298.922 329.418 299.484 330.73 299.484 332.363C299.484 334.035 298.934 335.336 297.832 336.266C296.738 337.195 295.203 337.66 293.227 337.66H289.699ZM289.699 335.281H293.262C294.316 335.281 295.121 335.035 295.676 334.543C296.23 334.043 296.508 333.324 296.508 332.387C296.508 331.465 296.227 330.73 295.664 330.184C295.102 329.629 294.328 329.344 293.344 329.328H289.699V335.281ZM301.113 337.543C301.113 336.301 301.359 335.184 301.852 334.191C302.344 333.191 303.035 332.426 303.926 331.895C304.816 331.355 305.84 331.086 306.996 331.086C308.707 331.086 310.094 331.637 311.156 332.738C312.227 333.84 312.805 335.301 312.891 337.121L312.902 337.789C312.902 339.039 312.66 340.156 312.176 341.141C311.699 342.125 311.012 342.887 310.113 343.426C309.223 343.965 308.191 344.234 307.02 344.234C305.23 344.234 303.797 343.641 302.719 342.453C301.648 341.258 301.113 339.668 301.113 337.684V337.543ZM303.961 337.789C303.961 339.094 304.23 340.117 304.77 340.859C305.309 341.594 306.059 341.961 307.02 341.961C307.98 341.961 308.727 341.586 309.258 340.836C309.797 340.086 310.066 338.988 310.066 337.543C310.066 336.262 309.789 335.246 309.234 334.496C308.688 333.746 307.941 333.371 306.996 333.371C306.066 333.371 305.328 333.742 304.781 334.484C304.234 335.219 303.961 336.32 303.961 337.789ZM320.52 341.961C321.23 341.961 321.82 341.754 322.289 341.34C322.758 340.926 323.008 340.414 323.039 339.805H325.723C325.691 340.594 325.445 341.332 324.984 342.02C324.523 342.699 323.898 343.238 323.109 343.637C322.32 344.035 321.469 344.234 320.555 344.234C318.781 344.234 317.375 343.66 316.336 342.512C315.297 341.363 314.777 339.777 314.777 337.754V337.461C314.777 335.531 315.293 333.988 316.324 332.832C317.355 331.668 318.762 331.086 320.543 331.086C322.051 331.086 323.277 331.527 324.223 332.41C325.176 333.285 325.676 334.438 325.723 335.867H323.039C323.008 335.141 322.758 334.543 322.289 334.074C321.828 333.605 321.238 333.371 320.52 333.371C319.598 333.371 318.887 333.707 318.387 334.379C317.887 335.043 317.633 336.055 317.625 337.414V337.871C317.625 339.246 317.871 340.273 318.363 340.953C318.863 341.625 319.582 341.961 320.52 341.961ZM337.852 333.582H333.738V344H330.891V333.582H326.824V331.32H337.852V333.582ZM338.871 337.543C338.871 336.301 339.117 335.184 339.609 334.191C340.102 333.191 340.793 332.426 341.684 331.895C342.574 331.355 343.598 331.086 344.754 331.086C346.465 331.086 347.852 331.637 348.914 332.738C349.984 333.84 350.562 335.301 350.648 337.121L350.66 337.789C350.66 339.039 350.418 340.156 349.934 341.141C349.457 342.125 348.77 342.887 347.871 343.426C346.98 343.965 345.949 344.234 344.777 344.234C342.988 344.234 341.555 343.641 340.477 342.453C339.406 341.258 338.871 339.668 338.871 337.684V337.543ZM341.719 337.789C341.719 339.094 341.988 340.117 342.527 340.859C343.066 341.594 343.816 341.961 344.777 341.961C345.738 341.961 346.484 341.586 347.016 340.836C347.555 340.086 347.824 338.988 347.824 337.543C347.824 336.262 347.547 335.246 346.992 334.496C346.445 333.746 345.699 333.371 344.754 333.371C343.824 333.371 343.086 333.742 342.539 334.484C341.992 335.219 341.719 336.32 341.719 337.789ZM353.285 344V331.32H358.43C360.164 331.32 361.484 331.625 362.391 332.234C363.297 332.836 363.75 333.703 363.75 334.836C363.75 335.422 363.566 335.949 363.199 336.418C362.84 336.879 362.305 337.234 361.594 337.484C362.422 337.656 363.078 338.004 363.562 338.527C364.047 339.051 364.289 339.668 364.289 340.379C364.289 341.559 363.852 342.457 362.977 343.074C362.109 343.691 360.859 344 359.227 344H353.285ZM356.133 338.598V341.75H359.25C360.711 341.75 361.441 341.227 361.441 340.18C361.441 339.125 360.699 338.598 359.215 338.598H356.133ZM356.133 336.559H358.477C360.094 336.559 360.902 336.082 360.902 335.129C360.902 334.129 360.137 333.613 358.605 333.582H356.133V336.559Z" fill="#222222"/>
<circle cx="537.84" cy="287.049" r="19.1682" fill="#8DD21B"/>
<path d="M537.731 108.92C506.686 108.92 481.425 134.073 481.425 164.952C481.221 210.121 535.592 247.574 537.731 249.088C537.731 249.088 594.242 210.121 594.038 164.987C594.038 134.073 568.777 108.92 537.731 108.92ZM537.731 193.021C522.177 193.021 509.578 180.476 509.578 164.987C509.578 149.498 522.177 136.953 537.731 136.953C553.286 136.953 565.885 149.498 565.885 164.987C565.885 180.476 553.286 193.021 537.731 193.021Z" fill="#0394ED"/>
<path d="M426.148 86V79.625H422.844L419.551 86H416.375L420.184 78.7461C418.199 77.8086 417.207 76.2734 417.207 74.1406C417.207 72.5078 417.742 71.2383 418.812 70.332C419.891 69.418 421.391 68.9531 423.312 68.9375H429.113V86H426.148ZM420.16 74.2695C420.16 75.2305 420.43 75.9805 420.969 76.5195C421.508 77.0586 422.316 77.3281 423.395 77.3281H426.148V71.3281H423.395C422.301 71.3281 421.488 71.5898 420.957 72.1133C420.426 72.6367 420.16 73.3555 420.16 74.2695ZM443.469 79.7891C443.469 81.75 443.023 83.3164 442.133 84.4883C441.242 85.6523 440.047 86.2344 438.547 86.2344C437.156 86.2344 436.043 85.7773 435.207 84.8633V90.875H432.359V73.3203H434.984L435.102 74.6094C435.938 73.5938 437.074 73.0859 438.512 73.0859C440.059 73.0859 441.27 73.6641 442.145 74.8203C443.027 75.9688 443.469 77.5664 443.469 79.6133V79.7891ZM440.633 79.543C440.633 78.2773 440.379 77.2734 439.871 76.5312C439.371 75.7891 438.652 75.418 437.715 75.418C436.551 75.418 435.715 75.8984 435.207 76.8594V82.4844C435.723 83.4688 436.566 83.9609 437.738 83.9609C438.645 83.9609 439.352 83.5977 439.859 82.8711C440.375 82.1367 440.633 81.0273 440.633 79.543ZM445.355 79.543C445.355 78.3008 445.602 77.1836 446.094 76.1914C446.586 75.1914 447.277 74.4258 448.168 73.8945C449.059 73.3555 450.082 73.0859 451.238 73.0859C452.949 73.0859 454.336 73.6367 455.398 74.7383C456.469 75.8398 457.047 77.3008 457.133 79.1211L457.145 79.7891C457.145 81.0391 456.902 82.1562 456.418 83.1406C455.941 84.125 455.254 84.8867 454.355 85.4258C453.465 85.9648 452.434 86.2344 451.262 86.2344C449.473 86.2344 448.039 85.6406 446.961 84.4531C445.891 83.2578 445.355 81.668 445.355 79.6836V79.543ZM448.203 79.7891C448.203 81.0938 448.473 82.1172 449.012 82.8594C449.551 83.5938 450.301 83.9609 451.262 83.9609C452.223 83.9609 452.969 83.5859 453.5 82.8359C454.039 82.0859 454.309 80.9883 454.309 79.543C454.309 78.2617 454.031 77.2461 453.477 76.4961C452.93 75.7461 452.184 75.3711 451.238 75.3711C450.309 75.3711 449.57 75.7422 449.023 76.4844C448.477 77.2188 448.203 78.3203 448.203 79.7891ZM464.762 83.9609C465.473 83.9609 466.062 83.7539 466.531 83.3398C467 82.9258 467.25 82.4141 467.281 81.8047H469.965C469.934 82.5938 469.688 83.332 469.227 84.0195C468.766 84.6992 468.141 85.2383 467.352 85.6367C466.562 86.0352 465.711 86.2344 464.797 86.2344C463.023 86.2344 461.617 85.6602 460.578 84.5117C459.539 83.3633 459.02 81.7773 459.02 79.7539V79.4609C459.02 77.5312 459.535 75.9883 460.566 74.832C461.598 73.668 463.004 73.0859 464.785 73.0859C466.293 73.0859 467.52 73.5273 468.465 74.4102C469.418 75.2852 469.918 76.4375 469.965 77.8672H467.281C467.25 77.1406 467 76.543 466.531 76.0742C466.07 75.6055 465.48 75.3711 464.762 75.3711C463.84 75.3711 463.129 75.707 462.629 76.3789C462.129 77.043 461.875 78.0547 461.867 79.4141V79.8711C461.867 81.2461 462.113 82.2734 462.605 82.9531C463.105 83.625 463.824 83.9609 464.762 83.9609ZM482.891 73.3203V86H480.043V75.6172H476.457L476.223 80.0352C476.074 82.1602 475.664 83.6875 474.992 84.6172C474.328 85.5391 473.309 86 471.934 86H471.055L471.043 83.6328L471.629 83.5742C472.254 83.4883 472.707 83.1094 472.988 82.4375C473.277 81.7578 473.461 80.5234 473.539 78.7344L473.773 73.3203H482.891ZM493.496 86C493.371 85.7578 493.262 85.3633 493.168 84.8164C492.262 85.7617 491.152 86.2344 489.84 86.2344C488.566 86.2344 487.527 85.8711 486.723 85.1445C485.918 84.418 485.516 83.5195 485.516 82.4492C485.516 81.0977 486.016 80.0625 487.016 79.3438C488.023 78.6172 489.461 78.2539 491.328 78.2539H493.074V77.4219C493.074 76.7656 492.891 76.2422 492.523 75.8516C492.156 75.4531 491.598 75.2539 490.848 75.2539C490.199 75.2539 489.668 75.418 489.254 75.7461C488.84 76.0664 488.633 76.4766 488.633 76.9766H485.785C485.785 76.2812 486.016 75.6328 486.477 75.0312C486.938 74.4219 487.562 73.9453 488.352 73.6016C489.148 73.2578 490.035 73.0859 491.012 73.0859C492.496 73.0859 493.68 73.4609 494.562 74.2109C495.445 74.9531 495.898 76 495.922 77.3516V83.0703C495.922 84.2109 496.082 85.1211 496.402 85.8008V86H493.496ZM490.367 83.9492C490.93 83.9492 491.457 83.8125 491.949 83.5391C492.449 83.2656 492.824 82.8984 493.074 82.4375V80.0469H491.539C490.484 80.0469 489.691 80.2305 489.16 80.5977C488.629 80.9648 488.363 81.4844 488.363 82.1562C488.363 82.7031 488.543 83.1406 488.902 83.4688C489.27 83.7891 489.758 83.9492 490.367 83.9492ZM499.121 86V73.3203H504.266C506 73.3203 507.32 73.625 508.227 74.2344C509.133 74.8359 509.586 75.7031 509.586 76.8359C509.586 77.4219 509.402 77.9492 509.035 78.418C508.676 78.8789 508.141 79.2344 507.43 79.4844C508.258 79.6562 508.914 80.0039 509.398 80.5273C509.883 81.0508 510.125 81.668 510.125 82.3789C510.125 83.5586 509.688 84.457 508.812 85.0742C507.945 85.6914 506.695 86 505.062 86H499.121ZM501.969 80.5977V83.75H505.086C506.547 83.75 507.277 83.2266 507.277 82.1797C507.277 81.125 506.535 80.5977 505.051 80.5977H501.969ZM501.969 78.5586H504.312C505.93 78.5586 506.738 78.082 506.738 77.1289C506.738 76.1289 505.973 75.6133 504.441 75.582H501.969V78.5586ZM523.367 73.3203V86H520.52V75.6172H516.934L516.699 80.0352C516.551 82.1602 516.141 83.6875 515.469 84.6172C514.805 85.5391 513.785 86 512.41 86H511.531L511.52 83.6328L512.105 83.5742C512.73 83.4883 513.184 83.1094 513.465 82.4375C513.754 81.7578 513.938 80.5234 514.016 78.7344L514.25 73.3203H523.367ZM529.461 77.3516H532.25C533.289 77.3516 534.195 77.5312 534.969 77.8906C535.742 78.25 536.328 78.7539 536.727 79.4023C537.133 80.0508 537.336 80.8047 537.336 81.6641C537.336 82.9688 536.875 84.0156 535.953 84.8047C535.031 85.5938 533.805 85.9922 532.273 86H526.613V73.3203H529.461V77.3516ZM529.461 79.6367V83.7266H532.238C532.934 83.7266 533.48 83.5547 533.879 83.2109C534.285 82.8594 534.488 82.3633 534.488 81.7227C534.488 81.082 534.289 80.5781 533.891 80.2109C533.5 79.8359 532.969 79.6445 532.297 79.6367H529.461Z" fill="#222222"/>
<circle cx="751.086" cy="215.168" r="19.1682" fill="#8DD21B"/>
<path d="M751.731 37.9199C720.686 37.9199 695.425 63.073 695.425 93.952C695.221 139.121 749.592 176.574 751.731 178.088C751.731 178.088 808.242 139.121 808.038 93.987C808.038 63.073 782.777 37.9199 751.731 37.9199ZM751.731 122.021C736.177 122.021 723.578 109.476 723.578 93.987C723.578 78.4985 736.177 65.9535 751.731 65.9535C767.286 65.9535 779.885 78.4985 779.885 93.987C779.885 109.476 767.286 122.021 751.731 122.021Z" fill="#0394ED"/>
<path d="M643.785 10.6875H641.77V18H638.816V0.9375H641.77V8.10938H643.398L648.414 0.9375H652.047L646.188 9.10547L652.562 18H649L643.785 10.6875ZM653.066 11.543C653.066 10.3008 653.312 9.18359 653.805 8.19141C654.297 7.19141 654.988 6.42578 655.879 5.89453C656.77 5.35547 657.793 5.08594 658.949 5.08594C660.66 5.08594 662.047 5.63672 663.109 6.73828C664.18 7.83984 664.758 9.30078 664.844 11.1211L664.855 11.7891C664.855 13.0391 664.613 14.1562 664.129 15.1406C663.652 16.125 662.965 16.8867 662.066 17.4258C661.176 17.9648 660.145 18.2344 658.973 18.2344C657.184 18.2344 655.75 17.6406 654.672 16.4531C653.602 15.2578 653.066 13.668 653.066 11.6836V11.543ZM655.914 11.7891C655.914 13.0938 656.184 14.1172 656.723 14.8594C657.262 15.5938 658.012 15.9609 658.973 15.9609C659.934 15.9609 660.68 15.5859 661.211 14.8359C661.75 14.0859 662.02 12.9883 662.02 11.543C662.02 10.2617 661.742 9.24609 661.188 8.49609C660.641 7.74609 659.895 7.37109 658.949 7.37109C658.02 7.37109 657.281 7.74219 656.734 8.48438C656.188 9.21875 655.914 10.3203 655.914 11.7891ZM672.473 15.9609C673.184 15.9609 673.773 15.7539 674.242 15.3398C674.711 14.9258 674.961 14.4141 674.992 13.8047H677.676C677.645 14.5938 677.398 15.332 676.938 16.0195C676.477 16.6992 675.852 17.2383 675.062 17.6367C674.273 18.0352 673.422 18.2344 672.508 18.2344C670.734 18.2344 669.328 17.6602 668.289 16.5117C667.25 15.3633 666.73 13.7773 666.73 11.7539V11.4609C666.73 9.53125 667.246 7.98828 668.277 6.83203C669.309 5.66797 670.715 5.08594 672.496 5.08594C674.004 5.08594 675.23 5.52734 676.176 6.41016C677.129 7.28516 677.629 8.4375 677.676 9.86719H674.992C674.961 9.14062 674.711 8.54297 674.242 8.07422C673.781 7.60547 673.191 7.37109 672.473 7.37109C671.551 7.37109 670.84 7.70703 670.34 8.37891C669.84 9.04297 669.586 10.0547 669.578 11.4141V11.8711C669.578 13.2461 669.824 14.2734 670.316 14.9531C670.816 15.625 671.535 15.9609 672.473 15.9609ZM689.805 7.58203H685.691V18H682.844V7.58203H678.777V5.32031H689.805V7.58203ZM702.812 11.7891C702.812 13.75 702.367 15.3164 701.477 16.4883C700.586 17.6523 699.391 18.2344 697.891 18.2344C696.5 18.2344 695.387 17.7773 694.551 16.8633V22.875H691.703V5.32031H694.328L694.445 6.60938C695.281 5.59375 696.418 5.08594 697.855 5.08594C699.402 5.08594 700.613 5.66406 701.488 6.82031C702.371 7.96875 702.812 9.56641 702.812 11.6133V11.7891ZM699.977 11.543C699.977 10.2773 699.723 9.27344 699.215 8.53125C698.715 7.78906 697.996 7.41797 697.059 7.41797C695.895 7.41797 695.059 7.89844 694.551 8.85938V14.4844C695.066 15.4688 695.91 15.9609 697.082 15.9609C697.988 15.9609 698.695 15.5977 699.203 14.8711C699.719 14.1367 699.977 13.0273 699.977 11.543ZM704.699 11.543C704.699 10.3008 704.945 9.18359 705.438 8.19141C705.93 7.19141 706.621 6.42578 707.512 5.89453C708.402 5.35547 709.426 5.08594 710.582 5.08594C712.293 5.08594 713.68 5.63672 714.742 6.73828C715.812 7.83984 716.391 9.30078 716.477 11.1211L716.488 11.7891C716.488 13.0391 716.246 14.1562 715.762 15.1406C715.285 16.125 714.598 16.8867 713.699 17.4258C712.809 17.9648 711.777 18.2344 710.605 18.2344C708.816 18.2344 707.383 17.6406 706.305 16.4531C705.234 15.2578 704.699 13.668 704.699 11.6836V11.543ZM707.547 11.7891C707.547 13.0938 707.816 14.1172 708.355 14.8594C708.895 15.5938 709.645 15.9609 710.605 15.9609C711.566 15.9609 712.312 15.5859 712.844 14.8359C713.383 14.0859 713.652 12.9883 713.652 11.543C713.652 10.2617 713.375 9.24609 712.82 8.49609C712.273 7.74609 711.527 7.37109 710.582 7.37109C709.652 7.37109 708.914 7.74219 708.367 8.48438C707.82 9.21875 707.547 10.3203 707.547 11.7891ZM726.426 14.4961L730.176 5.32031H733.738V18H730.891V9.60938L727.398 18H725.465L721.961 9.5625V18H719.113V5.32031H722.699L726.426 14.4961ZM744.52 18C744.395 17.7578 744.285 17.3633 744.191 16.8164C743.285 17.7617 742.176 18.2344 740.863 18.2344C739.59 18.2344 738.551 17.8711 737.746 17.1445C736.941 16.418 736.539 15.5195 736.539 14.4492C736.539 13.0977 737.039 12.0625 738.039 11.3438C739.047 10.6172 740.484 10.2539 742.352 10.2539H744.098V9.42188C744.098 8.76562 743.914 8.24219 743.547 7.85156C743.18 7.45312 742.621 7.25391 741.871 7.25391C741.223 7.25391 740.691 7.41797 740.277 7.74609C739.863 8.06641 739.656 8.47656 739.656 8.97656H736.809C736.809 8.28125 737.039 7.63281 737.5 7.03125C737.961 6.42188 738.586 5.94531 739.375 5.60156C740.172 5.25781 741.059 5.08594 742.035 5.08594C743.52 5.08594 744.703 5.46094 745.586 6.21094C746.469 6.95312 746.922 8 746.945 9.35156V15.0703C746.945 16.2109 747.105 17.1211 747.426 17.8008V18H744.52ZM741.391 15.9492C741.953 15.9492 742.48 15.8125 742.973 15.5391C743.473 15.2656 743.848 14.8984 744.098 14.4375V12.0469H742.562C741.508 12.0469 740.715 12.2305 740.184 12.5977C739.652 12.9648 739.387 13.4844 739.387 14.1562C739.387 14.7031 739.566 15.1406 739.926 15.4688C740.293 15.7891 740.781 15.9492 741.391 15.9492Z" fill="#222222"/>
<circle cx="758.274" cy="454.771" r="19.1682" fill="#8DD21B"/>
<path d="M758.731 274.92C727.686 274.92 702.425 300.073 702.425 330.952C702.221 376.121 756.592 413.574 758.731 415.088C758.731 415.088 815.242 376.121 815.038 330.987C815.038 300.073 789.777 274.92 758.731 274.92ZM758.731 359.021C743.177 359.021 730.578 346.476 730.578 330.987C730.578 315.498 743.177 302.953 758.731 302.953C774.286 302.953 786.885 315.498 786.885 330.987C786.885 346.476 774.286 359.021 758.731 359.021Z" fill="#0394ED"/>
<path d="M667.188 237.938H670.152V255H667.188V242.848L659.699 255H656.734V237.938H659.699V250.102L667.188 237.938ZM673.645 255V242.32H678.789C680.523 242.32 681.844 242.625 682.75 243.234C683.656 243.836 684.109 244.703 684.109 245.836C684.109 246.422 683.926 246.949 683.559 247.418C683.199 247.879 682.664 248.234 681.953 248.484C682.781 248.656 683.438 249.004 683.922 249.527C684.406 250.051 684.648 250.668 684.648 251.379C684.648 252.559 684.211 253.457 683.336 254.074C682.469 254.691 681.219 255 679.586 255H673.645ZM676.492 249.598V252.75H679.609C681.07 252.75 681.801 252.227 681.801 251.18C681.801 250.125 681.059 249.598 679.574 249.598H676.492ZM676.492 247.559H678.836C680.453 247.559 681.262 247.082 681.262 246.129C681.262 245.129 680.496 244.613 678.965 244.582H676.492V247.559ZM694.691 255C694.566 254.758 694.457 254.363 694.363 253.816C693.457 254.762 692.348 255.234 691.035 255.234C689.762 255.234 688.723 254.871 687.918 254.145C687.113 253.418 686.711 252.52 686.711 251.449C686.711 250.098 687.211 249.062 688.211 248.344C689.219 247.617 690.656 247.254 692.523 247.254H694.27V246.422C694.27 245.766 694.086 245.242 693.719 244.852C693.352 244.453 692.793 244.254 692.043 244.254C691.395 244.254 690.863 244.418 690.449 244.746C690.035 245.066 689.828 245.477 689.828 245.977H686.98C686.98 245.281 687.211 244.633 687.672 244.031C688.133 243.422 688.758 242.945 689.547 242.602C690.344 242.258 691.23 242.086 692.207 242.086C693.691 242.086 694.875 242.461 695.758 243.211C696.641 243.953 697.094 245 697.117 246.352V252.07C697.117 253.211 697.277 254.121 697.598 254.801V255H694.691ZM691.562 252.949C692.125 252.949 692.652 252.812 693.145 252.539C693.645 252.266 694.02 251.898 694.27 251.438V249.047H692.734C691.68 249.047 690.887 249.23 690.355 249.598C689.824 249.965 689.559 250.484 689.559 251.156C689.559 251.703 689.738 252.141 690.098 252.469C690.465 252.789 690.953 252.949 691.562 252.949ZM710.84 255H707.992V249.879H703.059V255H700.211V242.32H703.059V247.605H707.992V242.32H710.84V255ZM713.348 248.543C713.348 247.301 713.594 246.184 714.086 245.191C714.578 244.191 715.27 243.426 716.16 242.895C717.051 242.355 718.074 242.086 719.23 242.086C720.941 242.086 722.328 242.637 723.391 243.738C724.461 244.84 725.039 246.301 725.125 248.121L725.137 248.789C725.137 250.039 724.895 251.156 724.41 252.141C723.934 253.125 723.246 253.887 722.348 254.426C721.457 254.965 720.426 255.234 719.254 255.234C717.465 255.234 716.031 254.641 714.953 253.453C713.883 252.258 713.348 250.668 713.348 248.684V248.543ZM716.195 248.789C716.195 250.094 716.465 251.117 717.004 251.859C717.543 252.594 718.293 252.961 719.254 252.961C720.215 252.961 720.961 252.586 721.492 251.836C722.031 251.086 722.301 249.988 722.301 248.543C722.301 247.262 722.023 246.246 721.469 245.496C720.922 244.746 720.176 244.371 719.23 244.371C718.301 244.371 717.562 244.742 717.016 245.484C716.469 246.219 716.195 247.32 716.195 248.789ZM727.762 255V242.32H732.906C734.641 242.32 735.961 242.625 736.867 243.234C737.773 243.836 738.227 244.703 738.227 245.836C738.227 246.422 738.043 246.949 737.676 247.418C737.316 247.879 736.781 248.234 736.07 248.484C736.898 248.656 737.555 249.004 738.039 249.527C738.523 250.051 738.766 250.668 738.766 251.379C738.766 252.559 738.328 253.457 737.453 254.074C736.586 254.691 735.336 255 733.703 255H727.762ZM730.609 249.598V252.75H733.727C735.188 252.75 735.918 252.227 735.918 251.18C735.918 250.125 735.176 249.598 733.691 249.598H730.609ZM730.609 247.559H732.953C734.57 247.559 735.379 247.082 735.379 246.129C735.379 245.129 734.613 244.613 733.082 244.582H730.609V247.559ZM740.699 248.543C740.699 247.301 740.945 246.184 741.438 245.191C741.93 244.191 742.621 243.426 743.512 242.895C744.402 242.355 745.426 242.086 746.582 242.086C748.293 242.086 749.68 242.637 750.742 243.738C751.812 244.84 752.391 246.301 752.477 248.121L752.488 248.789C752.488 250.039 752.246 251.156 751.762 252.141C751.285 253.125 750.598 253.887 749.699 254.426C748.809 254.965 747.777 255.234 746.605 255.234C744.816 255.234 743.383 254.641 742.305 253.453C741.234 252.258 740.699 250.668 740.699 248.684V248.543ZM743.547 248.789C743.547 250.094 743.816 251.117 744.355 251.859C744.895 252.594 745.645 252.961 746.605 252.961C747.566 252.961 748.312 252.586 748.844 251.836C749.383 251.086 749.652 249.988 749.652 248.543C749.652 247.262 749.375 246.246 748.82 245.496C748.273 244.746 747.527 244.371 746.582 244.371C745.652 244.371 744.914 244.742 744.367 245.484C743.82 246.219 743.547 247.32 743.547 248.789Z" fill="#222222"/>
<circle cx="663.631" cy="598.533" r="19.1682" fill="#8DD21B"/>
<path d="M663.731 419.92C632.686 419.92 607.425 445.073 607.425 475.952C607.221 521.121 661.592 558.574 663.731 560.088C663.731 560.088 720.242 521.121 720.038 475.987C720.038 445.073 694.777 419.92 663.731 419.92ZM663.731 504.021C648.177 504.021 635.578 491.476 635.578 475.987C635.578 460.498 648.177 447.953 663.731 447.953C679.286 447.953 691.885 460.498 691.885 475.987C691.885 491.476 679.286 504.021 663.731 504.021Z" fill="#0394ED"/>
<path d="M583.754 394.445C583.582 396.266 582.91 397.688 581.738 398.711C580.566 399.727 579.008 400.234 577.062 400.234C575.703 400.234 574.504 399.914 573.465 399.273C572.434 398.625 571.637 397.707 571.074 396.52C570.512 395.332 570.219 393.953 570.195 392.383V390.789C570.195 389.18 570.48 387.762 571.051 386.535C571.621 385.309 572.438 384.363 573.5 383.699C574.57 383.035 575.805 382.703 577.203 382.703C579.086 382.703 580.602 383.215 581.75 384.238C582.898 385.262 583.566 386.707 583.754 388.574H580.801C580.66 387.348 580.301 386.465 579.723 385.926C579.152 385.379 578.312 385.105 577.203 385.105C575.914 385.105 574.922 385.578 574.227 386.523C573.539 387.461 573.188 388.84 573.172 390.66V392.172C573.172 394.016 573.5 395.422 574.156 396.391C574.82 397.359 575.789 397.844 577.062 397.844C578.227 397.844 579.102 397.582 579.688 397.059C580.273 396.535 580.645 395.664 580.801 394.445H583.754ZM590.574 395.922L593.152 387.32H596.188L591.148 401.922C590.375 404.055 589.062 405.121 587.211 405.121C586.797 405.121 586.34 405.051 585.84 404.91V402.707L586.379 402.742C587.098 402.742 587.637 402.609 587.996 402.344C588.363 402.086 588.652 401.648 588.863 401.031L589.273 399.941L584.82 387.32H587.891L590.574 395.922ZM607.438 390.789C607.438 391.352 607.266 391.871 606.922 392.348C606.586 392.816 606.109 393.191 605.492 393.473C606.945 393.98 607.672 394.961 607.672 396.414C607.672 397.578 607.199 398.508 606.254 399.203C605.309 399.891 604.043 400.234 602.457 400.234C601.488 400.234 600.605 400.074 599.809 399.754C599.012 399.426 598.391 398.965 597.945 398.371C597.5 397.77 597.277 397.059 597.277 396.238H600.113C600.113 396.754 600.344 397.188 600.805 397.539C601.266 397.883 601.848 398.055 602.551 398.055C603.246 398.055 603.797 397.895 604.203 397.574C604.617 397.246 604.824 396.82 604.824 396.297C604.824 395.68 604.645 395.234 604.285 394.961C603.926 394.688 603.371 394.551 602.621 394.551H600.582V392.5H602.691C603.965 392.484 604.602 391.961 604.602 390.93C604.602 390.414 604.418 390.012 604.051 389.723C603.684 389.434 603.18 389.289 602.539 389.289C601.914 389.289 601.387 389.445 600.957 389.758C600.527 390.062 600.312 390.449 600.312 390.918H597.477C597.477 389.801 597.945 388.887 598.883 388.176C599.82 387.457 601.012 387.098 602.457 387.098C604.027 387.098 605.25 387.418 606.125 388.059C607 388.699 607.438 389.609 607.438 390.789ZM610.145 397.727C610.934 396.844 611.461 396.008 611.727 395.219C612 394.422 612.164 393.406 612.219 392.172L612.383 387.32H621.184V397.727H622.941V403.773H620.105V400H611.973V403.773H609.09L609.102 397.727H610.145ZM613.484 397.727H618.348V389.77H615.148L615.066 392.195C614.957 394.523 614.43 396.367 613.484 397.727ZM632.551 400C632.426 399.758 632.316 399.363 632.223 398.816C631.316 399.762 630.207 400.234 628.895 400.234C627.621 400.234 626.582 399.871 625.777 399.145C624.973 398.418 624.57 397.52 624.57 396.449C624.57 395.098 625.07 394.062 626.07 393.344C627.078 392.617 628.516 392.254 630.383 392.254H632.129V391.422C632.129 390.766 631.945 390.242 631.578 389.852C631.211 389.453 630.652 389.254 629.902 389.254C629.254 389.254 628.723 389.418 628.309 389.746C627.895 390.066 627.688 390.477 627.688 390.977H624.84C624.84 390.281 625.07 389.633 625.531 389.031C625.992 388.422 626.617 387.945 627.406 387.602C628.203 387.258 629.09 387.086 630.066 387.086C631.551 387.086 632.734 387.461 633.617 388.211C634.5 388.953 634.953 390 634.977 391.352V397.07C634.977 398.211 635.137 399.121 635.457 399.801V400H632.551ZM629.422 397.949C629.984 397.949 630.512 397.812 631.004 397.539C631.504 397.266 631.879 396.898 632.129 396.438V394.047H630.594C629.539 394.047 628.746 394.23 628.215 394.598C627.684 394.965 627.418 395.484 627.418 396.156C627.418 396.703 627.598 397.141 627.957 397.469C628.324 397.789 628.812 397.949 629.422 397.949ZM648.734 387.32V400H645.887V389.617H642.301L642.066 394.035C641.918 396.16 641.508 397.688 640.836 398.617C640.172 399.539 639.152 400 637.777 400H636.898L636.887 397.633L637.473 397.574C638.098 397.488 638.551 397.109 638.832 396.438C639.121 395.758 639.305 394.523 639.383 392.734L639.617 387.32H648.734ZM654.828 391.352H657.617C658.656 391.352 659.562 391.531 660.336 391.891C661.109 392.25 661.695 392.754 662.094 393.402C662.5 394.051 662.703 394.805 662.703 395.664C662.703 396.969 662.242 398.016 661.32 398.805C660.398 399.594 659.172 399.992 657.641 400H651.98V387.32H654.828V391.352ZM654.828 393.637V397.727H657.605C658.301 397.727 658.848 397.555 659.246 397.211C659.652 396.859 659.855 396.363 659.855 395.723C659.855 395.082 659.656 394.578 659.258 394.211C658.867 393.836 658.336 393.645 657.664 393.637H654.828Z" fill="#222222"/>
<circle cx="616.908" cy="706.354" r="19.1682" fill="#8DD21B"/>
<path d="M616.731 527.92C585.686 527.92 560.425 553.073 560.425 583.952C560.221 629.121 614.592 666.574 616.731 668.088C616.731 668.088 673.242 629.121 673.038 583.987C673.038 553.073 647.777 527.92 616.731 527.92ZM616.731 612.021C601.177 612.021 588.578 599.476 588.578 583.987C588.578 568.498 601.177 555.953 616.731 555.953C632.286 555.953 644.885 568.498 644.885 583.987C644.885 599.476 632.286 612.021 616.731 612.021Z" fill="#0394ED"/>
<path d="M502.734 508V490.938H508.582C510.512 490.938 511.98 491.324 512.988 492.098C513.996 492.871 514.5 494.023 514.5 495.555C514.5 496.336 514.289 497.039 513.867 497.664C513.445 498.289 512.828 498.773 512.016 499.117C512.938 499.367 513.648 499.84 514.148 500.535C514.656 501.223 514.91 502.051 514.91 503.02C514.91 504.621 514.395 505.852 513.363 506.711C512.34 507.57 510.871 508 508.957 508H502.734ZM505.699 500.301V505.633H508.992C509.922 505.633 510.648 505.402 511.172 504.941C511.695 504.48 511.957 503.84 511.957 503.02C511.957 501.246 511.051 500.34 509.238 500.301H505.699ZM505.699 498.121H508.605C509.527 498.121 510.246 497.914 510.762 497.5C511.285 497.078 511.547 496.484 511.547 495.719C511.547 494.875 511.305 494.266 510.82 493.891C510.344 493.516 509.598 493.328 508.582 493.328H505.699V498.121ZM528.375 495.32V508H525.527V497.617H521.941L521.707 502.035C521.559 504.16 521.148 505.688 520.477 506.617C519.812 507.539 518.793 508 517.418 508H516.539L516.527 505.633L517.113 505.574C517.738 505.488 518.191 505.109 518.473 504.438C518.762 503.758 518.945 502.523 519.023 500.734L519.258 495.32H528.375ZM538.98 508C538.855 507.758 538.746 507.363 538.652 506.816C537.746 507.762 536.637 508.234 535.324 508.234C534.051 508.234 533.012 507.871 532.207 507.145C531.402 506.418 531 505.52 531 504.449C531 503.098 531.5 502.062 532.5 501.344C533.508 500.617 534.945 500.254 536.812 500.254H538.559V499.422C538.559 498.766 538.375 498.242 538.008 497.852C537.641 497.453 537.082 497.254 536.332 497.254C535.684 497.254 535.152 497.418 534.738 497.746C534.324 498.066 534.117 498.477 534.117 498.977H531.27C531.27 498.281 531.5 497.633 531.961 497.031C532.422 496.422 533.047 495.945 533.836 495.602C534.633 495.258 535.52 495.086 536.496 495.086C537.98 495.086 539.164 495.461 540.047 496.211C540.93 496.953 541.383 498 541.406 499.352V505.07C541.406 506.211 541.566 507.121 541.887 507.801V508H538.98ZM535.852 505.949C536.414 505.949 536.941 505.812 537.434 505.539C537.934 505.266 538.309 504.898 538.559 504.438V502.047H537.023C535.969 502.047 535.176 502.23 534.645 502.598C534.113 502.965 533.848 503.484 533.848 504.156C533.848 504.703 534.027 505.141 534.387 505.469C534.754 505.789 535.242 505.949 535.852 505.949ZM544.441 505.727C545.23 504.844 545.758 504.008 546.023 503.219C546.297 502.422 546.461 501.406 546.516 500.172L546.68 495.32H555.48V505.727H557.238V511.773H554.402V508H546.27V511.773H543.387L543.398 505.727H544.441ZM547.781 505.727H552.645V497.77H549.445L549.363 500.195C549.254 502.523 548.727 504.367 547.781 505.727ZM566.977 495.32H569.812V508H566.977V499.539L562.008 508H559.172V495.32H562.008V503.781L566.977 495.32ZM580.371 504.496L584.121 495.32H587.684V508H584.836V499.609L581.344 508H579.41L575.906 499.562V508H573.059V495.32H576.645L580.371 504.496ZM598.805 495.32H601.641V508H598.805V499.539L593.836 508H591V495.32H593.836V503.781L598.805 495.32ZM615.773 501.789C615.773 503.75 615.328 505.316 614.438 506.488C613.547 507.652 612.352 508.234 610.852 508.234C609.461 508.234 608.348 507.777 607.512 506.863V512.875H604.664V495.32H607.289L607.406 496.609C608.242 495.594 609.379 495.086 610.816 495.086C612.363 495.086 613.574 495.664 614.449 496.82C615.332 497.969 615.773 499.566 615.773 501.613V501.789ZM612.938 501.543C612.938 500.277 612.684 499.273 612.176 498.531C611.676 497.789 610.957 497.418 610.02 497.418C608.855 497.418 608.02 497.898 607.512 498.859V504.484C608.027 505.469 608.871 505.961 610.043 505.961C610.949 505.961 611.656 505.598 612.164 504.871C612.68 504.137 612.938 503.027 612.938 501.543Z" fill="#222222"/>
<circle cx="98.1682" cy="816.571" r="19.1682" fill="#8DD21B"/>
<path d="M97.7315 639.92C66.6857 639.92 41.4254 665.073 41.4254 695.952C41.2213 741.121 95.5919 778.574 97.7315 780.088C97.7315 780.088 154.242 741.121 154.038 695.987C154.038 665.073 128.777 639.92 97.7315 639.92ZM97.7315 724.021C82.1769 724.021 69.5784 711.476 69.5784 695.987C69.5784 680.498 82.1769 667.953 97.7315 667.953C113.286 667.953 125.885 680.498 125.885 695.987C125.885 711.476 113.286 724.021 97.7315 724.021Z" fill="#0394ED"/>
<path d="M14.7539 589.445C14.582 591.266 13.9102 592.688 12.7383 593.711C11.5664 594.727 10.0078 595.234 8.0625 595.234C6.70312 595.234 5.50391 594.914 4.46484 594.273C3.43359 593.625 2.63672 592.707 2.07422 591.52C1.51172 590.332 1.21875 588.953 1.19531 587.383V585.789C1.19531 584.18 1.48047 582.762 2.05078 581.535C2.62109 580.309 3.4375 579.363 4.5 578.699C5.57031 578.035 6.80469 577.703 8.20312 577.703C10.0859 577.703 11.6016 578.215 12.75 579.238C13.8984 580.262 14.5664 581.707 14.7539 583.574H11.8008C11.6602 582.348 11.3008 581.465 10.7227 580.926C10.1523 580.379 9.3125 580.105 8.20312 580.105C6.91406 580.105 5.92188 580.578 5.22656 581.523C4.53906 582.461 4.1875 583.84 4.17188 585.66V587.172C4.17188 589.016 4.5 590.422 5.15625 591.391C5.82031 592.359 6.78906 592.844 8.0625 592.844C9.22656 592.844 10.1016 592.582 10.6875 592.059C11.2734 591.535 11.6445 590.664 11.8008 589.445H14.7539ZM22.7227 595.234C20.918 595.234 19.4531 594.668 18.3281 593.535C17.2109 592.395 16.6523 590.879 16.6523 588.988V588.637C16.6523 587.371 16.8945 586.242 17.3789 585.25C17.8711 584.25 18.5586 583.473 19.4414 582.918C20.3242 582.363 21.3086 582.086 22.3945 582.086C24.1211 582.086 25.4531 582.637 26.3906 583.738C27.3359 584.84 27.8086 586.398 27.8086 588.414V589.562H19.5234C19.6094 590.609 19.957 591.438 20.5664 592.047C21.1836 592.656 21.957 592.961 22.8867 592.961C24.1914 592.961 25.2539 592.434 26.0742 591.379L27.6094 592.844C27.1016 593.602 26.4219 594.191 25.5703 594.613C24.7266 595.027 23.7773 595.234 22.7227 595.234ZM22.3828 584.371C21.6016 584.371 20.9688 584.645 20.4844 585.191C20.0078 585.738 19.7031 586.5 19.5703 587.477H24.9961V587.266C24.9336 586.312 24.6797 585.594 24.2344 585.109C23.7891 584.617 23.1719 584.371 22.3828 584.371ZM41.1328 588.789C41.1328 590.75 40.6875 592.316 39.7969 593.488C38.9062 594.652 37.7109 595.234 36.2109 595.234C34.8203 595.234 33.707 594.777 32.8711 593.863V599.875H30.0234V582.32H32.6484L32.7656 583.609C33.6016 582.594 34.7383 582.086 36.1758 582.086C37.7227 582.086 38.9336 582.664 39.8086 583.82C40.6914 584.969 41.1328 586.566 41.1328 588.613V588.789ZM38.2969 588.543C38.2969 587.277 38.043 586.273 37.5352 585.531C37.0352 584.789 36.3164 584.418 35.3789 584.418C34.2148 584.418 33.3789 584.898 32.8711 585.859V591.484C33.3867 592.469 34.2305 592.961 35.4023 592.961C36.3086 592.961 37.0156 592.598 37.5234 591.871C38.0391 591.137 38.2969 590.027 38.2969 588.543ZM51.9961 584.617H46.4883V595H43.6523V582.32H51.9961V584.617ZM61.5234 582.32H64.3594V595H61.5234V586.539L56.5547 595H53.7188V582.32H56.5547V590.781L61.5234 582.32ZM72.9727 595.234C71.168 595.234 69.7031 594.668 68.5781 593.535C67.4609 592.395 66.9023 590.879 66.9023 588.988V588.637C66.9023 587.371 67.1445 586.242 67.6289 585.25C68.1211 584.25 68.8086 583.473 69.6914 582.918C70.5742 582.363 71.5586 582.086 72.6445 582.086C74.3711 582.086 75.7031 582.637 76.6406 583.738C77.5859 584.84 78.0586 586.398 78.0586 588.414V589.562H69.7734C69.8594 590.609 70.207 591.438 70.8164 592.047C71.4336 592.656 72.207 592.961 73.1367 592.961C74.4414 592.961 75.5039 592.434 76.3242 591.379L77.8594 592.844C77.3516 593.602 76.6719 594.191 75.8203 594.613C74.9766 595.027 74.0273 595.234 72.9727 595.234ZM72.6328 584.371C71.8516 584.371 71.2188 584.645 70.7344 585.191C70.2578 585.738 69.9531 586.5 69.8203 587.477H75.2461V587.266C75.1836 586.312 74.9297 585.594 74.4844 585.109C74.0391 584.617 73.4219 584.371 72.6328 584.371ZM80.4961 595V582.32H85.6406C87.375 582.32 88.6953 582.625 89.6016 583.234C90.5078 583.836 90.9609 584.703 90.9609 585.836C90.9609 586.422 90.7773 586.949 90.4102 587.418C90.0508 587.879 89.5156 588.234 88.8047 588.484C89.6328 588.656 90.2891 589.004 90.7734 589.527C91.2578 590.051 91.5 590.668 91.5 591.379C91.5 592.559 91.0625 593.457 90.1875 594.074C89.3203 594.691 88.0703 595 86.4375 595H80.4961ZM83.3438 589.598V592.75H86.4609C87.9219 592.75 88.6523 592.227 88.6523 591.18C88.6523 590.125 87.9102 589.598 86.4258 589.598H83.3438ZM83.3438 587.559H85.6875C87.3047 587.559 88.1133 587.082 88.1133 586.129C88.1133 585.129 87.3477 584.613 85.8164 584.582H83.3438V587.559ZM15.2344 623H12.2812V608.328H4.76953V623H1.81641V605.938H15.2344V623ZM18.0117 616.543C18.0117 615.301 18.2578 614.184 18.75 613.191C19.2422 612.191 19.9336 611.426 20.8242 610.895C21.7148 610.355 22.7383 610.086 23.8945 610.086C25.6055 610.086 26.9922 610.637 28.0547 611.738C29.125 612.84 29.7031 614.301 29.7891 616.121L29.8008 616.789C29.8008 618.039 29.5586 619.156 29.0742 620.141C28.5977 621.125 27.9102 621.887 27.0117 622.426C26.1211 622.965 25.0898 623.234 23.918 623.234C22.1289 623.234 20.6953 622.641 19.6172 621.453C18.5469 620.258 18.0117 618.668 18.0117 616.684V616.543ZM20.8594 616.789C20.8594 618.094 21.1289 619.117 21.668 619.859C22.207 620.594 22.957 620.961 23.918 620.961C24.8789 620.961 25.625 620.586 26.1562 619.836C26.6953 619.086 26.9648 617.988 26.9648 616.543C26.9648 615.262 26.6875 614.246 26.1328 613.496C25.5859 612.746 24.8398 612.371 23.8945 612.371C22.9648 612.371 22.2266 612.742 21.6797 613.484C21.1328 614.219 20.8594 615.32 20.8594 616.789ZM37.418 620.961C38.1289 620.961 38.7188 620.754 39.1875 620.34C39.6562 619.926 39.9062 619.414 39.9375 618.805H42.6211C42.5898 619.594 42.3438 620.332 41.8828 621.02C41.4219 621.699 40.7969 622.238 40.0078 622.637C39.2188 623.035 38.3672 623.234 37.4531 623.234C35.6797 623.234 34.2734 622.66 33.2344 621.512C32.1953 620.363 31.6758 618.777 31.6758 616.754V616.461C31.6758 614.531 32.1914 612.988 33.2227 611.832C34.2539 610.668 35.6602 610.086 37.4414 610.086C38.9492 610.086 40.1758 610.527 41.1211 611.41C42.0742 612.285 42.5742 613.438 42.6211 614.867H39.9375C39.9062 614.141 39.6562 613.543 39.1875 613.074C38.7266 612.605 38.1367 612.371 37.418 612.371C36.4961 612.371 35.7852 612.707 35.2852 613.379C34.7852 614.043 34.5312 615.055 34.5234 616.414V616.871C34.5234 618.246 34.7695 619.273 35.2617 619.953C35.7617 620.625 36.4805 620.961 37.418 620.961ZM52.3477 623C52.2227 622.758 52.1133 622.363 52.0195 621.816C51.1133 622.762 50.0039 623.234 48.6914 623.234C47.418 623.234 46.3789 622.871 45.5742 622.145C44.7695 621.418 44.3672 620.52 44.3672 619.449C44.3672 618.098 44.8672 617.062 45.8672 616.344C46.875 615.617 48.3125 615.254 50.1797 615.254H51.9258V614.422C51.9258 613.766 51.7422 613.242 51.375 612.852C51.0078 612.453 50.4492 612.254 49.6992 612.254C49.0508 612.254 48.5195 612.418 48.1055 612.746C47.6914 613.066 47.4844 613.477 47.4844 613.977H44.6367C44.6367 613.281 44.8672 612.633 45.3281 612.031C45.7891 611.422 46.4141 610.945 47.2031 610.602C48 610.258 48.8867 610.086 49.8633 610.086C51.3477 610.086 52.5312 610.461 53.4141 611.211C54.2969 611.953 54.75 613 54.7734 614.352V620.07C54.7734 621.211 54.9336 622.121 55.2539 622.801V623H52.3477ZM49.2188 620.949C49.7812 620.949 50.3086 620.812 50.8008 620.539C51.3008 620.266 51.6758 619.898 51.9258 619.438V617.047H50.3906C49.3359 617.047 48.543 617.23 48.0117 617.598C47.4805 617.965 47.2148 618.484 47.2148 619.156C47.2148 619.703 47.3945 620.141 47.7539 620.469C48.1211 620.789 48.6094 620.949 49.2188 620.949ZM57.8086 620.727C58.5977 619.844 59.125 619.008 59.3906 618.219C59.6641 617.422 59.8281 616.406 59.8828 615.172L60.0469 610.32H68.8477V620.727H70.6055V626.773H67.7695V623H59.6367V626.773H56.7539L56.7656 620.727H57.8086ZM61.1484 620.727H66.0117V612.77H62.8125L62.7305 615.195C62.6211 617.523 62.0938 619.367 61.1484 620.727Z" fill="#222222"/>
</svg>
