<svg width="29" height="17" viewBox="0 0 29 17" fill="none" xmlns="http://www.w3.org/2000/svg">
<path fill-rule="evenodd" clip-rule="evenodd" d="M25.8131 11.9167C25.8131 11.9167 28.1577 14.2911 28.7377 15.3898C28.749 15.4057 28.7578 15.4232 28.7638 15.4418C29.0002 15.8477 29.0582 16.1659 28.9422 16.4008C28.7464 16.7889 28.0838 16.9836 27.859 17H23.7149C23.4264 17 22.8261 16.9227 22.0953 16.4053C21.537 16.0053 20.9817 15.3467 20.4437 14.7029C19.6404 13.7469 18.9459 12.9173 18.2426 12.9173C18.1538 12.9171 18.0656 12.9321 17.9816 12.9619C17.4494 13.1343 16.7737 13.9119 16.7737 15.983C16.7737 16.6313 16.2749 17 15.9255 17H14.0274C13.3807 17 10.0138 16.7681 7.02829 13.5402C3.36993 9.58833 0.0842307 1.66075 0.0523306 1.59087C-0.15212 1.07793 0.277081 0.798409 0.741081 0.798409H4.92579C5.48694 0.798409 5.66964 1.14632 5.79724 1.45854C5.94514 1.81686 6.49324 3.25013 7.39224 4.86033C8.84804 7.48006 9.74269 8.54609 10.4575 8.54609C10.5918 8.54649 10.7239 8.5106 10.8403 8.44202C11.7741 7.91569 11.6001 4.49606 11.5566 3.79132C11.5566 3.65454 11.5552 2.26439 11.0767 1.59236C10.7345 1.11064 10.1516 0.923299 9.79924 0.854906C9.89349 0.715147 10.0936 0.501049 10.3502 0.374672C10.9897 0.0475772 12.1453 0 13.2923 0H13.9288C15.1729 0.0178415 15.4948 0.099615 15.9472 0.217072C16.8578 0.440091 16.8752 1.04522 16.7955 3.10591C16.7723 3.69468 16.7476 4.35779 16.7476 5.13836C16.7476 5.30488 16.7404 5.49073 16.7404 5.67955C16.7128 6.73666 16.6766 7.92758 17.4045 8.41674C17.4989 8.47704 17.6079 8.50898 17.7191 8.50892C17.9714 8.50892 18.7269 8.50892 20.7758 4.90345C21.6748 3.31109 22.3708 1.43327 22.4186 1.29202C22.4592 1.21322 22.581 0.991691 22.7289 0.902484C22.8341 0.845086 22.952 0.816414 23.0711 0.819224H27.9939C28.5304 0.819224 28.8943 0.902484 28.9654 1.11064C29.0843 1.44814 28.9422 2.47848 26.6947 5.5948C26.3162 6.1137 25.9842 6.56271 25.6927 6.95522C23.6555 9.69687 23.6555 9.83514 25.8131 11.9167Z" fill="#083856"/>
</svg>
