<svg width="12" height="20" viewBox="0 0 12 20" fill="none" xmlns="http://www.w3.org/2000/svg">
<path d="M12 0.561941C12 0.414647 11.9425 0.273385 11.8402 0.169233C11.7379 0.0650801 11.5992 0.00656764 11.4545 0.00656764H8.72727C7.35395 -0.0630863 6.00938 0.423532 4.98733 1.3601C3.96529 2.29667 3.34886 3.60705 3.27273 5.00493V8.00394H0.545455C0.400791 8.00394 0.262053 8.06245 0.15976 8.16661C0.0574675 8.27076 0 8.41202 0 8.55931V11.4473C0 11.5945 0.0574675 11.7358 0.15976 11.84C0.262053 11.9441 0.400791 12.0026 0.545455 12.0026H3.27273V19.4446C3.27273 19.5919 3.33019 19.7332 3.43249 19.8373C3.53478 19.9415 3.67352 20 3.81818 20H7.09091C7.23557 20 7.37431 19.9415 7.4766 19.8373C7.5789 19.7332 7.63636 19.5919 7.63636 19.4446V12.0026H10.4945C10.6158 12.0044 10.7343 11.965 10.8311 11.8905C10.9279 11.8161 10.9976 11.7109 11.0291 11.5917L11.8145 8.70371C11.8362 8.62165 11.8392 8.53561 11.8231 8.45223C11.807 8.36884 11.7723 8.29032 11.7217 8.22272C11.6711 8.15513 11.606 8.10025 11.5313 8.06232C11.4566 8.02439 11.3744 8.00442 11.2909 8.00394H7.63636V5.00493C7.6635 4.72999 7.79031 4.47522 7.99203 4.29038C8.19375 4.10553 8.45589 4.00387 8.72727 4.00525H11.4545C11.5992 4.00525 11.7379 3.94674 11.8402 3.84259C11.9425 3.73844 12 3.59718 12 3.44988V0.561941Z" fill="#083856"/>
</svg>
