<svg width="109" height="124" viewBox="0 0 109 124" fill="none" xmlns="http://www.w3.org/2000/svg">
<path d="M104.045 31H82.9886V28.52C82.9886 12.772 70.2307 0 54.5 0C38.7693 0 26.0114 12.772 26.0114 28.52V31H4.95455C2.21406 31 0 33.2165 0 35.96V119.04C0 121.784 2.21406 124 4.95455 124H104.045C106.786 124 109 121.784 109 119.04V35.96C109 33.2165 106.786 31 104.045 31ZM71.8409 31H37.1591V28.52C37.1591 18.9255 44.916 11.16 54.5 11.16C64.0839 11.16 71.8409 18.9255 71.8409 28.52V31Z" fill="#FFF1CD"/>
</svg>
